<svg width="512" height="512" viewBox="0 0 512 512" fill="none" xmlns="http://www.w3.org/2000/svg">
  <rect width="512" height="512" rx="112" fill="#F67D2A"/>
  <path d="M191.043 130.214C195.527 129.634 203.885 130.326 208.23 131.186C257.471 140.927 281.937 189.182 272.301 236.381C266.593 264.334 252.546 286.972 233.895 308.215C231.369 311.093 226.743 316.302 223.802 318.341C232.822 323.071 242.042 329.427 252.829 330.69C266.337 332.271 285.978 320.121 296.072 312.291C321.868 292.279 341.828 262.473 345.697 229.619C347.155 217.216 346.9 202.755 338.808 192.451C334.05 186.342 327.056 182.38 319.37 181.439C309.766 180.386 300.137 183.182 292.592 189.215C284.578 174.271 275.674 159.142 267.967 144.076C271.196 142.441 274.282 140.536 277.609 138.919C287.337 134.188 297.855 131.291 308.634 130.372C331.138 128.424 351.413 135.412 368.588 149.832C386.189 165.907 395.264 185.169 397.075 209.04C400.272 251.163 383.426 293.001 356.441 324.895C333.551 351.95 296.913 378.316 261.06 381.745C232.635 384.461 198.102 364.976 176.955 346.86C141.759 316.712 117.772 275.167 114.348 228.408C112.515 203.37 117.72 177.812 134.41 158.332C149.052 141.241 168.744 131.858 191.043 130.214ZM213.016 188.927C207.75 183.909 200.01 180.264 192.596 181.383C167.894 184.433 162.978 208.896 165.79 229.485C168.413 248.689 175.557 267.43 187.246 282.897C188.531 281.302 190.22 279.77 191.706 278.337C208.084 261.244 223.564 238.936 223.196 214.268C223.057 204.948 219.872 195.459 213.016 188.927Z" fill="#F7F2EF"/>
</svg>
