<svg width="280" height="280" viewBox="0 0 280 280" fill="none" xmlns="http://www.w3.org/2000/svg">
<path d="M215.461 82.2792C214.221 82.2386 213.319 83.0842 213.311 84.2924C213.305 85.3102 214.122 86.237 215.05 86.2622C216.409 86.2986 217.447 85.3158 217.477 83.9606C217.497 83.101 216.553 82.3142 215.461 82.2792Z" fill="#F67D2A"/>
<path d="M219.668 23.272H215.394L167.404 63.6242L220.566 126.374L268.32 85.705L270.532 79.8279C253.19 59.5979 264.849 72.6612 219.668 23.272ZM240.902 58.9426C241.641 58.3616 241.763 58.3238 242.425 58.9482C244.157 60.5848 245.115 61.3996 246.422 63.081C246.421 63.4674 246.19 63.6452 245.987 63.8258C244.751 64.9276 243.558 66.0882 242.256 67.1088C239.131 69.5546 236.275 72.307 233.26 74.876C231.609 76.2816 229.923 77.6466 228.291 79.0718C227.832 79.4736 227.445 79.4218 227.066 79.1012C225.69 77.9336 224.426 76.6498 223.252 75.2792C222.79 74.7388 223.184 74.3076 223.541 73.959C224.335 73.1862 225.12 72.3896 226.002 71.726C228.439 69.8892 230.531 67.659 232.907 65.748C235.633 63.5542 238.148 61.107 240.904 58.944L240.902 58.9426ZM225.73 45.8694C226.142 45.4158 226.612 45.2352 227.156 45.7644C230.595 49.1118 231.125 50.1016 231.155 49.8818C231.102 50.3984 230.926 50.5538 230.754 50.7064C229.074 52.2058 227.405 53.715 225.653 55.1346C224.371 56.172 217.909 62.2102 215.59 63.9812C214.486 64.8254 214.414 64.831 213.403 63.8734C209.689 60.3566 209.478 60.4336 210.561 59.3696C213.228 56.753 216.103 54.3646 218.91 51.9034C224.281 47.1938 224.857 46.8312 225.73 45.8694ZM216.577 32.3888C218.449 34.3628 220.38 36.2864 221.934 38.5418C222.321 39.1032 222.265 39.5792 221.831 40.0286C221.364 40.5116 220.823 40.4066 220.319 40.0804C219.905 39.8116 219.731 39.5638 215.211 34.0814C214.948 33.7622 214.684 33.436 214.654 32.9908C214.585 31.9982 215.65 31.4144 216.576 32.3902L216.577 32.3888ZM212.134 34.9018C212.587 34.9018 212.909 35.165 213.212 35.4506C215.257 37.3896 216.979 39.61 218.723 41.8094C219.099 42.2826 219.199 42.8398 218.697 43.299C218.191 43.761 217.645 43.5944 217.216 43.1772C215.166 41.1822 214.353 40.1602 211.894 37.2034C211.66 36.922 211.422 36.6294 211.26 36.3046C210.879 35.5458 211.298 34.9032 212.135 34.9032L212.134 34.9018ZM208.67 37.7662C209.612 37.8292 210.312 38.8652 215.454 44.7368C216.392 45.8078 215.671 47.023 214.589 46.7402C214.215 46.6422 213.956 46.3804 213.699 46.1116C212.937 45.3122 208.016 39.9152 207.771 38.847C207.627 38.2184 208.032 37.7228 208.67 37.7662ZM205.996 40.8308C206.465 41.1766 206.587 41.3908 211.974 47.534C212.25 47.849 212.538 48.1514 212.534 48.6092C212.524 49.6676 211.421 50.243 210.16 48.7366C205.233 42.8538 205.079 42.6802 204.697 41.7982C204.371 41.045 205.243 40.2764 205.996 40.8308ZM203.178 43.8324C208.949 50.2794 210.028 50.936 208.937 52.1204C208.548 52.5432 207.83 52.5264 207.311 52.0756C206.567 51.4302 201.541 45.8876 201.142 44.8012C200.698 43.593 202.166 42.7026 203.178 43.8324ZM197.845 47.38C198.246 47.331 198.573 47.5788 198.876 47.8798C200.782 49.7684 202.577 51.7606 204.27 53.8424C204.711 54.3856 204.956 54.9792 204.435 55.4342C204.176 55.661 203.879 55.7912 203.547 55.6232C203.304 55.5 203.05 55.36 202.86 55.171C201.824 54.135 197.583 49.886 197.008 48.5392C196.76 47.9582 197.165 47.4094 197.845 47.3814V47.38ZM194.911 49.998C195.178 49.9966 195.475 50.215 195.735 50.4852C197.658 52.49 199.492 54.5704 201.123 56.823C201.51 57.3578 201.719 57.8772 201.246 58.3098C200.745 58.769 200.148 58.489 199.682 57.9878C198.729 56.9658 194.52 52.448 193.997 51.0256C193.799 50.4908 194.215 50.0036 194.911 49.998ZM191.825 52.581C193.232 52.8372 197.138 57.719 198.079 58.9146C198.724 59.735 198.787 60.323 198.283 60.7388C197.823 61.1182 197.263 61.0328 196.595 60.3538C195.112 58.8446 193.683 57.2836 192.395 55.5994C191.976 55.052 191.484 54.5564 191.121 53.9754C190.719 53.3314 191.149 52.5544 191.825 52.581ZM184.499 58.4274C185.016 58.44 185.375 58.7242 185.709 59.0504C187.253 60.5666 188.859 62.024 190.229 63.7082C191.439 65.1964 192.392 65.8684 191.699 66.5096C191.066 67.0962 190.497 66.854 189.917 66.224C185.98 61.9582 182.553 58.699 184.5 58.426L184.499 58.4274ZM176.037 66.7448C174.916 66.749 173.9 65.846 173.866 64.8184C173.828 63.6172 174.738 62.5756 175.844 62.5574C177.006 62.5378 177.911 63.494 177.885 64.7148C177.862 65.8628 177.062 66.7406 176.037 66.7448ZM183.169 73.8904C180.314 73.9352 180.433 69.7226 183.218 69.745C184.226 69.7534 185.069 70.6606 185.093 71.7652C185.118 72.888 184.226 73.875 183.169 73.8904ZM190.361 81.8467C189.13 81.9783 188.453 81.0514 188.478 80.1596C188.511 78.9038 189.468 77.8174 190.55 77.7936C191.61 77.7698 192.604 78.7302 192.59 79.7634C192.571 81.0374 191.719 81.8341 190.362 81.8467H190.361ZM195.049 63.0964C195.016 63.9462 194.286 64.3844 193.581 63.9658C192.269 63.1888 187.925 57.8268 187.463 57.0568C187.187 56.5962 187.009 56.1104 187.457 55.6736C187.971 55.1724 188.511 55.3964 188.929 55.8038C190.971 57.7988 192.969 59.8372 194.678 62.1346C194.904 62.437 195.082 62.752 195.049 63.0964ZM197.721 90.2074C196.589 90.2158 195.621 89.2317 195.619 88.0697C195.616 86.9105 196.533 86.0326 197.775 86.0046C198.925 85.978 199.863 86.8306 199.896 87.9282C199.93 89.0412 198.824 90.199 197.721 90.2074ZM205.79 97.9424C204.764 97.9382 203.666 96.9078 203.659 95.9446C203.652 94.9618 204.712 93.9426 205.761 93.923C206.892 93.902 207.817 94.7868 207.815 95.8886C207.815 96.9582 206.839 97.9466 205.79 97.9424ZM203.393 78.1282C195.174 77.3036 194.513 66.5488 202.066 64.6C202.733 64.4278 203.433 64.3872 203.983 64.306C209.241 64.2472 212.157 69.4482 211.205 72.8684C210.228 76.3824 206.549 78.4446 203.393 78.1282ZM216.672 105.13C216.625 106.039 215.446 107.04 214.449 107.02C213.35 106.998 212.461 106.124 212.513 105.116C212.566 104.084 213.657 103.227 214.857 103.275C215.856 103.316 216.721 104.2 216.672 105.13ZM219.373 93.013C218.67 93.1096 217.934 92.845 217.217 92.509C214.663 91.3106 212.538 89.583 210.771 87.3836C208.055 84.0026 210.013 79.9511 213.58 78.7555C215.709 78.0415 218.063 78.1352 219.905 80.714C222.173 83.8892 224.386 87.448 223.098 91.1076C222.593 92.5426 221.53 93.0606 219.374 93.0144L219.373 93.013ZM222.145 115.132C221.101 115.15 219.976 114.213 220.072 113.305C220.191 112.182 220.906 111.233 222.408 111.244C225.476 111.268 224.795 115.087 222.145 115.132ZM257.862 79.9062C241.822 94.7029 242.585 94.4452 241.594 94.4816C241.493 94.434 241.297 94.392 241.17 94.2744C240.087 93.272 238.879 92.4012 237.964 91.2252C237.205 90.2508 237.181 89.9708 238.088 89.1266C239.292 88.0066 250.618 77.6299 253.596 75.1393C253.883 74.8999 254.162 74.8775 254.479 75.0819C256.038 76.0843 257.03 77.599 258.082 79.0564C258.294 79.3504 258.135 79.6515 257.86 79.9049L257.862 79.9062Z" fill="#F67D2A"/>
<path d="M271.295 79.6542C270.747 77.9434 269.752 76.5168 268.563 75.2036C246.014 50.2724 243.516 47.0594 234.499 37.3602C230.187 32.7206 226.261 27.7296 221.663 23.349C220.479 22.2206 219.156 21.4758 217.44 21.438C216.616 21.5318 215.712 21.5696 214.966 22.0876C213.485 23.1138 211.952 24.0924 210.596 25.2642C175.076 55.9788 148.196 77.0894 129.011 93.013L129.475 95.022C214.687 24.1988 211.707 26.1938 215.922 23.7564C217.28 22.971 218.45 23.1628 219.736 24.1904C222.13 26.1028 245.449 52.5908 267.917 77.5108C268.843 78.5384 269.454 79.706 269.401 80.9016C269.452 84.7012 270.697 82.4794 154.753 181.188C154.972 181.766 155.2 182.404 155.446 183.109C270.725 84.9882 268.125 87.7 270.396 84.3722C271.368 82.9484 271.851 81.3986 271.293 79.6584L271.295 79.6542Z" fill="#3C270B"/>
<path d="M175.004 126.562C173.152 124.623 171.327 122.659 169.455 120.738C167.755 118.993 167.723 119 165.886 120.594C165.48 120.947 153.458 131.486 140.557 142.821L141.043 144.775C149.904 136.945 158.777 129.133 167.738 121.405C168.324 121.814 167.824 121.335 174.072 128.016L143.506 154.655L143.948 156.447C158.259 143.957 173.217 130.912 175.011 129.358C175.398 129.024 175.828 128.717 175.811 128.261C175.784 127.493 175.433 127.012 175.006 126.564L175.004 126.562Z" fill="#3C270B"/>
<path d="M136.28 124.475L142.418 119.059C143.175 118.388 143.196 118.375 143.832 119.05C145.701 121.033 147.553 123.03 149.482 125.097L138.627 134.592L139.044 136.385C151.301 125.793 151.279 125.947 151.179 125.14C151.189 124.625 150.94 124.201 150.573 123.819C148.465 121.612 146.374 119.388 144.251 117.197C143.392 116.312 143.093 116.317 142.128 117.037C142.072 117.079 139.604 119.242 135.834 122.552L136.279 124.477L136.28 124.475Z" fill="#3C270B"/>
<path d="M171.021 79.5689C170.797 79.6291 152.616 94.9675 133.259 111.419L133.759 113.582C153.012 97.3083 171.115 81.9391 171.497 81.6101C171.843 81.3105 172.214 81.0123 172.234 80.4873C172.258 79.8237 171.689 79.3911 171.021 79.5689Z" fill="#3C270B"/>
<path d="M145.723 163.847L151.131 159.086C153.033 161.421 154.843 163.745 156.923 165.91C156.328 166.52 152.592 169.81 148.014 173.804L148.408 175.547L158.452 166.796C159.093 166.239 159.153 165.869 158.67 165.134C158.41 164.736 152.148 157.671 152.005 157.508C151.325 156.74 150.982 156.734 150.157 157.445C149.883 157.68 147.987 159.353 145.236 161.78L145.723 163.847Z" fill="#3C270B"/>
<path d="M203.045 72.0757C202.635 72.0757 202.751 72.0897 200.106 69.2029C199.846 68.9173 199.864 68.4749 200.15 68.2145C200.434 67.9527 200.878 67.9723 201.138 68.2579L203.56 70.9039C203.974 71.3561 203.646 72.0757 203.045 72.0757Z" fill="#F67D2A"/>
<path d="M205.417 72.1276C204.791 72.1276 204.476 71.3604 204.932 70.9222L207.08 68.8614C207.36 68.5954 207.802 68.6024 208.07 68.8824C208.337 69.161 208.329 69.6048 208.049 69.8722C205.695 72.1318 205.792 72.1276 205.417 72.1276Z" fill="#F67D2A"/>
<path d="M132.915 25.1663C132.779 25.8327 132.447 26.4879 132.012 27.0899C127.049 33.9359 123.753 38.5111 122.693 39.2643C121.849 39.8649 120.931 39.1411 121.129 38.2227C121.268 37.5843 121.523 36.9949 121.881 36.4503C123.785 33.5635 125.706 30.6879 127.76 27.9047C129.975 24.9059 130.346 24.1555 131.447 23.9161C132.289 23.7341 132.933 24.2521 132.913 25.1691L132.915 25.1663Z" fill="#3C270B"/>
<path d="M118.332 22.3523C118.034 26.4445 117.485 30.3673 116.935 34.2901C116.897 34.5617 116.84 34.8417 116.728 35.0895C116.315 36.0065 115.151 35.9519 114.768 35.1385C114.426 34.4147 114.328 33.6349 114.394 32.8439C114.579 30.6165 115.17 22.7723 115.84 20.6387C116.032 20.0283 116.446 19.5607 117.145 19.6055C118.415 19.6853 118.275 21.2057 118.331 22.3509L118.332 22.3523Z" fill="#3C270B"/>
<path d="M128.71 45.4429C127.932 45.4975 127.504 45.2945 127.264 44.7625C126.839 43.8189 127.81 43.0363 128.78 42.6723C132.233 41.3773 135.66 40.0277 138.946 38.3407C139.901 37.8507 141.057 37.5833 141.532 38.5395C141.8 39.0827 141.693 39.6511 141.247 40.0669C139.049 42.1207 131.342 45.0173 128.71 45.4429Z" fill="#3C270B"/>
<path d="M118.797 93.4959C117.582 87.7839 113.785 69.5783 111.019 60.8549C110.256 58.4189 109.932 57.9779 107.379 57.7147C101.769 57.0133 85.1874 60.7835 79.6112 61.9119C69.667 63.9181 77.0604 62.9157 55.6292 66.2855C48.6432 67.3719 41.7454 68.9273 34.9946 71.1295C33.6744 71.5691 32.4116 72.0395 31.2664 72.8907C30.4278 73.5487 30.537 74.1353 30.621 75.5619C30.8562 80.0531 31.8544 84.4561 32.8512 88.8003C33.876 93.2411 37.0862 108.797 37.782 110.521C38.8978 109.553 39.896 108.613 40.9516 107.733C49.038 100.759 55.5521 98.4169 64.4043 94.8763C82.1801 87.8693 101.593 88.0065 118.708 94.2309C118.884 93.9369 118.825 93.7031 118.796 93.4973L118.797 93.4959ZM40.19 79.2005C39.9478 79.2201 35.9158 78.5733 34.877 78.3787C33.8242 78.1813 33.6436 77.7039 34.261 76.8821C35.171 75.6501 36.1398 74.4755 37.1086 73.3009C37.3144 73.0657 37.5496 72.8599 37.8128 72.6555C38.1824 72.4707 38.6206 72.8151 38.4876 73.2127C37.7624 74.7835 36.7404 75.4989 35.9046 77.0879C36.0572 77.1089 40.1956 77.7207 40.337 77.7627C41.4066 78.0917 41.0258 79.2005 40.19 79.2005ZM105.265 65.4049C103.798 65.4049 102.652 64.2023 102.652 62.7631C102.652 61.2077 103.856 60.0331 105.382 60.0625C106.908 60.0919 108.024 61.2371 108.024 62.7043C108.024 64.2303 106.791 65.4343 105.265 65.4049Z" fill="#9BB067"/>
<path d="M43.9978 121.623C44.0916 115.76 48.839 111.134 54.733 111.242C60.2798 111.343 65.0202 116.02 64.799 122.098C64.575 128.246 59.2928 132.242 54.1394 132.098C48.4176 131.937 43.9068 127.332 43.9992 121.624L43.9978 121.623ZM54.1198 112.86C49.3822 112.848 45.5392 116.642 45.5084 121.358C45.4762 126.321 49.4172 130.313 54.341 130.304C59.0016 130.296 62.9342 126.401 62.9678 121.762C63.0042 116.801 59.0996 112.873 54.1198 112.86Z" fill="#F67D2A"/>
<path d="M68.1424 150.763C68.0388 154.226 67.7574 157.35 66.1222 160.169C65.8912 160.568 65.6658 160.98 65.3774 161.335C64.2938 162.671 62.6222 162.941 61.1578 162.014C60.0924 161.341 59.1922 160.48 58.4376 159.468C54.981 154.832 51.1072 147.608 54.6002 143.028C55.716 141.563 57.067 140.368 58.8674 139.854C61.5456 139.089 64.7222 140.426 66.3126 142.927C68.0374 145.639 67.8386 147.652 68.1424 150.763ZM66.2244 151.59C66.2244 150.838 66.2678 150.372 66.2174 149.916C66.0046 147.999 65.9794 146.046 64.9252 144.31C63.1976 141.462 59.811 140.851 57.256 142.958C56.7534 143.372 56.3376 143.858 55.9148 144.349C54.9208 145.503 54.792 146.792 55.0384 148.241C55.6866 152.042 57.6018 155.22 59.825 158.258C60.3738 159.009 60.9996 159.682 61.785 160.192C62.9288 160.934 63.7772 160.753 64.4254 159.594C65.8786 156.994 66.0662 154.564 66.2244 151.59Z" fill="#F67D2A"/>
<path d="M74.3232 143.519C73.766 143.53 73.269 143.551 73.1878 143.026C73.0408 142.08 74.529 141.772 75.5412 141.528C75.929 141.435 107.94 133.936 109.136 133.914C110.046 133.897 110.53 135.165 109.55 135.643C108.59 136.112 77.3374 143.01 77.1918 143.042C76.2468 143.249 75.3004 143.5 74.3232 143.519Z" fill="#F67D2A"/>
<path d="M99.9993 106.28C100.657 106.301 101.108 106.542 101.201 107.123C101.294 107.715 100.929 108.076 100.372 108.214C98.5755 108.659 69.4737 115.268 68.8857 115.341C68.3705 115.405 67.9505 115.226 67.7671 114.729C67.4311 113.819 68.3201 113.385 69.2623 113.172C76.6949 111.491 99.8117 106.318 99.9993 106.28Z" fill="#F67D2A"/>
<path d="M79.1884 172.614C78.662 172.614 78.046 172.684 77.9718 172.034C77.864 171.109 77.7828 171.246 110.638 163.914C111.001 163.833 111.36 163.723 111.733 163.804C112.119 163.888 112.419 164.089 112.48 164.516C112.536 164.913 112.447 165.279 112.07 165.464C111.701 165.645 111.307 165.8 110.905 165.887C109.101 166.279 81.1078 172.321 79.1884 172.614Z" fill="#F67D2A"/>
<path d="M91.0813 146.565C90.3911 146.565 89.7905 146.658 89.6561 146.067C89.5273 145.497 89.9095 145.242 90.3939 145.083C94.6961 143.663 97.4597 143.273 108.482 141.058C109.466 140.86 110.229 141.096 110.408 141.681C110.877 143.21 106.595 143.596 105.087 143.894C100.925 144.717 91.4999 146.498 91.0813 146.565Z" fill="#F67D2A"/>
<path d="M79.7958 178.655C79.2092 178.673 78.722 178.557 78.617 178.022C78.5106 177.482 78.9222 177.174 79.3968 177.042C80.773 176.661 82.1464 176.258 83.5408 175.957C87.0548 175.198 94.6484 173.672 94.9214 173.626C95.5318 173.523 96.0624 173.637 96.2416 174.301C96.4208 174.972 95.9588 175.324 95.4324 175.574C95.0138 175.771 86.4024 177.613 79.7958 178.655Z" fill="#F67D2A"/>
<path d="M100.473 173.999C99.8902 173.835 99.7418 173.24 100.179 172.823C101.079 171.959 107.485 170.734 110.974 169.908C111.867 169.697 112.43 170.138 112.515 170.671C112.637 171.424 112.066 171.732 111.325 171.916C110.145 172.207 101.643 174.326 100.473 173.999Z" fill="#F67D2A"/>
<path d="M70.8232 119.25C70.2058 119.27 69.7172 119.24 69.5744 118.672C69.4344 118.116 69.7928 117.815 70.2646 117.636C71.8046 117.052 78.3034 115.632 80.2214 115.246C82.3858 114.809 82.5034 116.779 81.1328 117.086C77.6622 117.861 74.2028 118.69 70.8232 119.25Z" fill="#F67D2A"/>
<path d="M76.8951 149.583C76.1461 149.583 75.351 149.606 75.281 148.831C75.2278 148.244 75.7738 148.099 76.219 147.988C81.2702 146.731 85.207 145.754 86.1884 145.628C86.7442 145.556 87.2216 145.754 87.3602 146.354C87.5814 147.311 86.5565 147.546 85.6577 147.743C76.9217 149.66 77.7043 149.503 76.8979 149.581L76.8951 149.583Z" fill="#F67D2A"/>
<path d="M51.9036 116.47C51.884 115.777 52.059 115.406 52.5084 115.266C53.5444 114.941 53.7236 116.495 54.8156 121.478C54.971 122.189 54.7372 122.707 54.2108 122.816C53.592 122.945 53.2154 122.571 53.0936 122.043C52.6526 120.117 52.2648 118.179 51.9036 116.47Z" fill="#F67D2A"/>
<path d="M56.1807 124.033C55.6081 124.065 55.2399 123.998 55.1139 123.564C54.9753 123.085 55.2105 122.757 55.6473 122.581C56.9283 122.061 58.2457 121.641 59.5953 121.352C60.7069 121.114 61.1871 122.584 60.1343 122.964C58.7903 123.45 57.4099 123.804 56.1793 124.033H56.1807Z" fill="#F67D2A"/>
<path d="M60.2099 144.947C61.9809 144.915 63.4579 146.378 63.4887 148.195C63.5195 149.97 61.9543 151.499 60.0965 151.508C58.3633 151.515 56.8751 149.98 56.8765 148.184C56.8765 146.478 58.4193 144.981 60.2099 144.949V144.947ZM60.0461 149.668C60.9925 149.7 61.7695 148.974 61.7695 148.055C61.7695 147.166 60.9939 146.381 60.0825 146.349C57.9489 146.272 57.9825 149.597 60.0461 149.668Z" fill="#F67D2A"/>
<path d="M144.844 207.016L142.552 207.538C142.818 208.763 143.02 209.633 143.102 209.879C143.433 213.067 143.536 214.202 141.576 214.898C135.076 217.315 132.71 218.093 119.415 221.531C112.492 223.288 78.6522 232.446 69.2512 232.538C66.874 232.538 66.5212 232.303 65.7288 230.073C63.9382 224.995 62.94 219.741 61.5904 214.545C61.3846 213.753 61.7668 213.606 62.3828 213.459C63.7716 213.12 70.9816 211.257 80.4862 208.786C80.2566 208.087 80.0242 207.351 79.782 206.575C70.1122 209.097 62.6768 211.048 61.0038 211.521C60.5922 209.848 60.4172 208.234 60.0644 206.649C50.7348 165.275 46.0504 146.897 38.4316 113.776C38.2846 113.101 38.4022 112.748 38.8712 112.338C47.7178 104.843 52.7158 101.642 68.6646 95.9596C84.5826 90.1986 105.237 91.0918 118.359 96.6932C119.357 97.1328 119.738 97.7208 119.944 98.6896C120.61 101.971 130.869 150.99 136.334 177.304C137.206 177.14 138.089 176.981 138.963 176.831C137.75 170.63 129.786 132.123 127.487 122.144C112.902 57.79 114.418 55.9742 107.733 55.396C101.348 54.8374 92.3596 56.7918 86.1884 58.0084C62.8168 62.7698 80.5044 59.7444 56.248 63.6728C50.1426 64.671 44.0372 65.7868 38.1082 67.6362C35.3782 68.4874 32.6482 69.3386 30.0946 70.6882C28.6274 71.51 28.01 72.714 28.01 74.3282C28.01 77.5496 28.8654 82.4202 29.536 85.5702C31.062 92.6738 59.8278 218.128 61.3258 223.91C62.1182 226.993 62.9988 230.045 64.5248 232.892C65.229 234.185 66.2566 234.742 67.6062 234.889C72.0232 235.32 79.9318 233.619 83.779 232.745C100.013 229.055 122.306 223.265 132.387 220.358C136.086 219.301 139.638 217.922 143.16 216.367C145.533 215.299 145.585 213.312 145.186 210.672C145.562 209.917 145.25 209.053 144.844 207.015V207.016ZM32.8526 88.7986C31.8544 84.4544 30.8562 80.0514 30.6224 75.5602C30.5342 74.0608 30.4684 73.5176 31.2678 72.889C32.413 72.0378 33.6744 71.5674 34.996 71.1278C41.7468 68.9256 48.6446 67.3702 55.6306 66.2838C77.0296 62.9196 69.6936 63.9108 79.6126 61.9102C85.2126 60.7762 101.78 57.0116 107.38 57.713C109.934 57.9776 110.257 58.4172 111.02 60.8532C113.704 69.3148 117.646 88.0804 118.799 93.4942C118.828 93.7 118.887 93.9338 118.71 94.2278C103.718 88.7748 87.3728 88.2946 73.7424 91.8506C66.2426 93.7952 55.7874 98.1604 51.3172 100.568C44.3088 104.406 40.5022 108.159 37.7848 110.52C37.1016 108.827 34.0426 93.9576 32.8526 88.7986Z" fill="#3C270B"/>
<path d="M155.606 214.517C155.665 214.37 155.614 214.163 155.488 213.754C155.382 213.411 155.264 212.45 155.106 211.699C154.841 210.291 154.519 208.91 154.225 207.502C154.167 207.209 154.078 207.004 153.902 206.886L153.448 204.87C151.71 205.514 150.675 205.654 150.816 205.654C151.642 209.291 152.249 211.897 152.494 212.756C152.522 212.846 153.08 214.453 153.08 214.547C153.874 219.587 154.96 227.42 153.784 232.306C153.49 233.539 152.845 234.39 151.67 235.036C148.207 236.915 144.449 238.176 140.75 239.439C122.517 245.62 118.892 245.627 112.279 247.57C104.236 249.888 96.0765 251.708 88.0335 253.94C83.1265 255.325 72.8547 257.703 66.9579 257.99C65.8127 258.049 65.1085 257.579 64.6689 256.611C61.8955 250.639 63.0687 251.58 58.5341 237.356C54.7989 225.769 54.9473 222.577 52.6639 212.259C51.9009 208.825 50.8733 205.45 50.1691 202.015C48.6137 194.707 36.5205 140.434 35.1989 133.77C30.8645 110.797 35.0225 131.745 28.2129 100.249C23.9135 80.4757 21.9689 77.4811 21.1387 67.5201C20.8741 64.4387 20.7565 61.4147 22.4309 58.6259C22.6955 58.1863 22.8999 57.7747 23.4879 57.6277C32.3933 55.5221 27.3519 56.6897 47.1465 53.9583C76.1797 49.7667 78.7935 49.0051 85.3049 47.6177C90.0313 46.6195 94.8739 46.0917 99.6297 45.1817C102.74 44.5951 105.882 44.4187 109.022 44.5657C114.265 44.8653 115.119 49.5861 116.126 54.7213C116.859 58.3907 118.063 61.9719 118.679 65.6707C119.707 71.5787 134.324 135.543 135.85 141.342C141.026 161.303 139.132 152.896 144.246 176.069C145.289 175.957 146.226 175.893 146.999 175.889C143.198 158.638 143.59 160.235 137.935 138.581C133.09 120.363 118.636 54.5939 118.181 52.1075C117.334 47.2817 114.806 42.8983 109.932 42.3915C104.91 41.8539 100.692 42.6407 91.3515 44.1233C84.6819 45.2083 80.1375 46.6503 68.7499 48.4087C31.0171 54.0269 26.7863 53.7945 15.7095 57.6837C13.2735 58.5349 11.3947 60.1491 9.89811 62.2043C9.16451 63.2025 8.69411 64.3477 8.60731 65.5503C8.40151 67.9863 8.40151 70.4223 8.78371 72.8877C10.2033 82.5603 11.3387 82.7325 10.3685 83.7783C9.45851 84.7765 9.22331 85.9805 9.39971 87.2713C9.63491 88.7385 9.78191 90.2071 10.1039 91.6449C11.0027 95.6279 14.1975 112.897 16.7959 119.677C17.3531 121.115 18.1749 122.26 19.6729 122.847C20.0845 123.023 20.3309 123.256 20.4065 123.757C22.3819 136.721 43.3021 220.448 45.2397 228.841C48.5829 243.027 49.8891 250.95 57.0683 257.195C61.6057 261.077 67.2659 260.72 72.8015 259.719C89.3831 256.6 87.9229 255.977 102.683 252.498C107.351 251.412 111.87 249.768 116.596 248.829C120.413 248.095 124.139 246.95 127.868 245.893C134.883 243.926 141.898 241.872 148.679 239.142C150.499 238.408 152.113 237.351 153.756 236.353C155.576 235.267 156.281 233.594 156.604 231.687C157.09 228.722 156.877 223.49 156.663 221.561C156.369 219.213 156.017 216.864 155.606 214.516V214.517ZM10.9845 86.9199C10.9439 86.3921 10.9551 85.8923 11.2785 85.4527C11.9827 84.4839 12.8927 83.7209 13.9203 83.0461C14.3907 82.7241 14.7043 82.9621 14.8891 83.3989C15.1411 83.9911 15.4463 84.5735 15.5933 85.1895C16.7973 90.6495 18.3233 95.9919 19.6729 101.421C19.8493 102.126 19.5852 102.576 18.8805 102.771C17.4133 103.153 15.9741 103.563 14.4481 103.975C14.0407 102.816 11.1735 89.4133 10.9845 86.9213V86.9199ZM18.4115 119.12C16.7357 114.801 15.7025 109.488 14.9479 106.47C14.8303 106.03 14.9745 105.786 15.4463 105.648C16.7315 105.271 17.9999 104.914 19.2921 104.532C20.036 104.316 20.4956 104.571 20.6711 105.295C21.3165 108.201 23.4599 117.857 23.8407 119.736C24.1347 121.203 23.7525 121.703 22.2853 121.732C20.6123 121.527 19.1157 120.969 18.4101 119.12H18.4115ZM59.7409 256.61C55.6907 253.674 53.0489 249.8 51.5803 245.015C49.4369 238 47.8227 230.837 46.2085 223.675C45.5337 220.564 44.6825 217.481 43.9783 214.37C43.4491 212.109 43.1565 209.82 42.6287 207.561C41.2777 201.661 23.7847 127.486 22.6983 123.699C25.4325 123.699 26.0611 122.689 25.7797 120.94C25.3247 117.987 22.1719 103.36 18.4997 90.2071C17.3937 85.9315 17.8123 84.9249 17.1207 83.2799C16.0049 80.7557 14.7141 80.4911 12.8647 81.4011C12.4825 80.8145 12.3369 80.1383 12.2193 79.4929C11.1875 73.7921 9.21771 66.8523 11.7489 63.0849C12.7471 61.5589 14.0085 60.4137 15.7697 59.8859C17.1487 59.4757 18.4997 59.0641 19.8493 58.6525C20.0257 59.1509 19.7317 59.3861 19.5847 59.6213C18.9393 60.7959 18.6747 62.0279 18.7041 63.3495C18.8189 74.7651 22.3063 84.2949 23.3423 88.7693C25.5697 98.2851 31.5561 125.531 31.6485 125.959C32.1469 128.22 32.4409 130.538 32.8525 132.798C34.9021 144.727 55.2399 232.941 55.8069 234.858C57.6857 241.081 59.6233 247.333 61.4727 253.555C61.9431 255.081 62.6179 256.461 63.6161 258.017C62.0019 257.87 60.7979 257.373 59.7409 256.61Z" fill="#3C270B"/>
<path d="M63.2255 58.3797C62.5549 58.4511 62.2119 58.2145 61.8927 57.9429C61.3593 57.4879 61.3719 56.9475 61.9501 56.5947C63.1261 55.8765 74.4759 54.1755 75.8087 53.9711C76.9329 53.7989 77.4481 54.013 77.5811 54.5772C77.7113 55.126 77.3179 55.5083 76.1699 55.7477C67.3443 57.5887 62.9329 58.4231 63.2255 58.3797Z" fill="#3C270B"/>
<path d="M58.3688 58.3473C58.24 60.4543 55.2762 60.1057 55.384 58.2661C55.433 57.4317 56.126 56.7849 56.9338 56.8213C57.8074 56.8605 58.4192 57.5129 58.3688 58.3473Z" fill="#3C270B"/>
<path d="M146.446 177.333C148.945 177.382 151.067 177.157 152.258 179.167C153.093 180.574 153.539 182.137 154.095 183.647C156.02 188.886 157.844 193.627 157.422 198.955C157.297 200.533 156.649 201.706 155.161 202.496C152.055 204.145 155.179 203.205 93.471 216.924C91.8302 217.288 90.1698 217.292 88.5108 217.054C86.744 216.802 85.4644 215.819 84.4998 214.359C82.6896 211.618 81.9126 208.421 79.4808 200.75C79.1994 199.862 79.051 198.944 79.1112 198.014C79.2624 195.661 80.0926 193.774 82.3802 192.641C90.5408 188.605 117.873 182.847 128.505 180.415C134.266 179.097 140.559 177.846 146.446 177.333ZM146.383 179.575C144.642 179.603 142.37 180.055 140.084 180.391C125.664 182.509 92.855 191.345 88.249 192.802C86.5354 193.344 84.8302 193.909 83.2384 194.793C82.2416 195.346 81.7432 196.134 81.613 197.205C81.5066 198.079 81.459 198.965 81.7152 199.822C82.8702 203.67 84.049 207.515 85.5498 211.243C86.7972 214.342 88.438 215.205 91.7434 214.732C91.8344 214.719 91.9254 214.697 92.015 214.677C154.931 200.94 154.739 201.544 154.981 199.097C155.49 193.971 153.206 188.619 151.119 182.502C150.14 179.635 150.035 179.516 146.383 179.575Z" fill="#F67D2A"/>
<path d="M118.526 203.639C118.7 203.809 118.793 203.978 118.804 204.148C118.816 204.318 118.775 204.472 118.683 204.609C118.593 204.755 118.464 204.862 118.298 204.93C118.134 205.007 117.957 205.029 117.768 204.997C117.58 204.974 117.405 204.881 117.241 204.719L115.944 203.428C115.768 203.249 115.558 203.131 115.314 203.073C115.082 203.023 114.811 203.034 114.502 203.107L115.726 202.257C116.153 202.156 116.511 202.153 116.802 202.247C117.091 202.333 117.397 202.534 117.721 202.85L118.526 203.639ZM114.516 203.103C113.589 203.322 112.728 203.309 111.932 203.066C111.145 202.82 110.474 202.374 109.919 201.728C109.362 201.073 108.965 200.246 108.729 199.247C108.551 198.493 108.501 197.791 108.577 197.14C108.652 196.48 108.838 195.889 109.137 195.368C109.443 194.835 109.851 194.389 110.361 194.029C110.877 193.658 111.485 193.39 112.185 193.225C113.12 193.004 113.982 193.016 114.768 193.262C115.553 193.499 116.223 193.94 116.778 194.586C117.333 195.232 117.729 196.054 117.964 197.054C118.142 197.808 118.194 198.515 118.12 199.175C118.045 199.835 117.855 200.431 117.549 200.963C117.253 201.494 116.846 201.945 116.329 202.316C115.82 202.676 115.215 202.938 114.516 203.103ZM114.162 201.605C114.752 201.465 115.22 201.211 115.564 200.842C115.918 200.471 116.143 200.001 116.238 199.432C116.343 198.86 116.311 198.216 116.142 197.498C115.885 196.408 115.44 195.621 114.808 195.137C114.185 194.651 113.429 194.513 112.538 194.724C111.957 194.861 111.489 195.115 111.136 195.486C110.78 195.848 110.55 196.315 110.445 196.886C110.347 197.446 110.384 198.09 110.555 198.816C110.81 199.897 111.255 200.684 111.889 201.177C112.523 201.67 113.281 201.812 114.162 201.605ZM121.774 201.362C121.492 201.428 121.256 201.403 121.065 201.285C120.881 201.155 120.756 200.95 120.69 200.668L118.818 192.738C118.75 192.448 118.776 192.211 118.896 192.029C119.014 191.839 119.214 191.71 119.495 191.644L122.779 190.869C123.833 190.62 124.706 190.683 125.398 191.056C126.088 191.421 126.54 192.057 126.755 192.966C126.894 193.556 126.882 194.096 126.72 194.585C126.566 195.072 126.271 195.487 125.834 195.83C125.397 196.173 124.829 196.426 124.129 196.592L124.204 196.358L124.653 196.252C125.026 196.164 125.37 196.179 125.685 196.296C126.01 196.412 126.322 196.64 126.623 196.981L128.092 198.634C128.246 198.799 128.34 198.973 128.374 199.157C128.408 199.341 128.375 199.507 128.276 199.655C128.174 199.794 128.001 199.893 127.756 199.95C127.51 200.008 127.299 200.006 127.121 199.942C126.941 199.869 126.766 199.738 126.596 199.548L124.622 197.338C124.386 197.068 124.142 196.91 123.891 196.863C123.648 196.806 123.353 196.818 123.008 196.899L121.714 197.205L122.434 200.257C122.5 200.538 122.48 200.778 122.373 200.976C122.264 201.165 122.065 201.293 121.774 201.362ZM121.408 195.91L123.534 195.409C124.161 195.261 124.603 195.022 124.861 194.693C125.126 194.352 125.197 193.923 125.075 193.405C124.955 192.896 124.701 192.554 124.314 192.376C123.934 192.188 123.431 192.168 122.804 192.316L120.678 192.817L121.408 195.91Z" fill="#3C270B"/>
</svg>
