<svg width="281" height="280" viewBox="0 0 281 280" fill="none" xmlns="http://www.w3.org/2000/svg">
<path d="M226.472 98.9239C232.443 92.2599 232.542 90.7759 233.202 91.2799C235.337 92.8619 210.722 113.512 222.51 121.044C225.32 122.822 226.205 123.284 225.32 125.244C225.221 126.42 224.308 127.61 224.421 129.556C224.533 131.502 224.421 132.23 227.624 133.462C229.364 133.548 231.089 133.104 232.57 132.188C234.382 131.096 236.785 130.032 238.021 131.67C239.78 131.316 241.433 130.564 242.854 129.472C242.124 129.505 241.393 129.42 240.691 129.22C247.294 126.882 248.826 123.62 249.458 119.546C249.626 115.08 246.521 111.384 246.198 110.558C245.327 112.308 243.88 116.382 241.224 116.928C243.385 114.234 244.968 111.128 245.875 107.8C245.594 103.894 245.538 99.8759 243.767 96.6979C242.222 93.8979 240.072 93.8979 238.302 96.5019C237.459 97.7619 237.473 98.0419 236.995 97.9019C236.518 97.7619 236.574 97.3559 236.447 97.0199C233.75 90.0199 233.933 90.0199 233.174 90.0199C225.587 89.7819 222.215 86.5759 221.47 87.5979C221.835 91.4899 222.369 95.2559 224.477 98.6439C225.39 100.128 225.376 100.142 226.472 98.9239Z" fill="#FFB481"/>
<path d="M115.885 73.9196C116.685 74.9467 117.682 75.805 118.818 76.4443C119.954 77.0836 121.206 77.4913 122.502 77.6436C125.144 78.1756 127.588 76.3556 130.033 75.2356C126.9 74.8996 123.992 74.6896 121.449 73.0236C119.847 71.9876 121.449 70.3776 121.673 71.7216C122.053 73.4856 129.204 73.9336 130.286 75.1236C138.983 71.1196 139.756 73.3176 134.501 72.0296C133.475 71.7776 130.651 70.7976 131.087 69.8456C131.522 68.8936 132.295 71.2456 141.442 71.7076C149.155 70.3076 149.211 74.3816 150.687 74.8016C147.877 71.4136 146.289 66.6116 147.132 66.4016C148.72 65.8976 146.57 73.2196 160.465 80.9896C162.465 81.9817 164.624 82.6167 166.844 82.8656C166.556 83.1851 166.187 83.422 165.776 83.5516C171.593 85.8616 169.991 91.2796 170.469 88.6476C170.469 88.3396 170.286 87.7936 170.778 87.7516C171.27 87.7096 171.354 88.2556 171.312 88.6476C171.045 91.0976 171.846 93.5476 171.537 96.0116C171.818 96.1096 171.86 95.6476 171.916 95.5076C172.537 93.9889 173.058 92.4316 173.476 90.8456C173.476 79.8276 169.724 78.5816 163.051 68.6276C158.836 62.3136 150.068 62.9016 141.498 63.0276C124.638 63.1536 156.25 67.5216 141.835 66.6956C140.003 66.6637 138.199 66.2439 136.542 65.4643C134.885 64.6847 133.414 63.563 132.225 62.1736C125.678 54.4316 126.464 54.5996 125.706 50.9736C124.356 53.6379 123.54 56.5386 123.303 59.5136C123.303 60.8156 122.896 62.2296 124.568 62.9856C121.322 62.8176 120.142 60.1856 118.442 58.0576C118.087 58.899 117.873 59.793 117.81 60.7036C117.458 65.1276 119.734 67.5496 118.287 68.3056C116.84 69.0616 114.592 65.3096 113.805 63.9376C113.458 65.6552 113.463 67.4251 113.82 69.1406C114.178 70.8561 114.88 72.4818 115.885 73.9196ZM161.8 77.0696C162.095 76.6916 162.025 76.6216 169.471 81.0596C169.736 81.1862 169.96 81.3848 170.117 81.6325C170.273 81.8802 170.356 82.1669 170.357 82.4596C168.909 81.7456 160.887 78.3016 161.8 77.0696Z" fill="#FFB481"/>
<path d="M124.062 259.238C120.043 260.162 109.773 265.44 100.753 259.238C97.9426 257.515 94.9624 256.084 91.859 254.968C91.7791 255.055 91.7128 255.154 91.6623 255.262C91.1143 256.466 90.173 254.758 89.7093 255.668C89.3862 256.27 89.6391 257.866 89.9763 261.786C89.9763 262.136 90.5383 263.186 89.4424 263.088C90.7069 267.47 97.6054 269.696 102.087 270.452C113.608 272.412 126.633 274.834 146.078 268.534C148.888 267.61 147.146 265.118 149.057 252.686C140.809 255.276 132.463 257.32 124.062 259.238Z" fill="#FFB481"/>
<path d="M105.74 43.5537C105.881 43.5537 128.656 42.0277 132.534 41.7057C133.517 41.6217 133.939 41.1037 133.489 40.1237C133.04 39.1437 132.716 37.8837 132.169 36.8337C131.297 35.1817 132.337 35.5317 139.067 33.7677C141.877 33.0537 139.671 31.9197 134.515 25.9557C134.167 25.4985 133.663 25.1845 133.098 25.0735C132.534 24.9625 131.948 25.0622 131.452 25.3537C129.71 26.1377 122.235 29.3997 120.324 30.2397C118.119 31.2617 118.498 31.1357 122.643 35.0837C105.375 42.3077 103.689 41.7057 104.181 43.0357C104.434 43.7077 105.164 43.7217 105.74 43.5537Z" fill="#F67D2A"/>
<path d="M177.283 119.308C174.951 110.53 180.936 102.242 176.946 103.054C177.789 103.558 176.946 103.978 176.749 104.244C171.129 110.726 166.83 123.032 173.574 126.126C176.608 127.526 176.833 126.798 176.285 129.332C175.822 131.488 176.819 131.628 178.969 131.6C180.733 131.422 182.421 130.795 183.872 129.78C186.191 128.38 179.657 128.254 177.283 119.308Z" fill="#FFB481"/>
<path d="M192.26 222.81C193.665 223.202 195.07 223.86 196.616 223.174C196.918 223.035 197.246 222.964 197.578 222.964C197.91 222.964 198.239 223.035 198.541 223.174C199.373 223.26 200.16 223.592 200.803 224.126C201.982 223.912 203.055 223.31 203.852 222.418C203.711 222.418 188.945 219.17 174.895 214.452C175.597 216.902 176.3 217.616 175.625 217.616C181.073 219.641 186.626 221.375 192.26 222.81Z" fill="#FFB481"/>
<path d="M196.405 206.5C195.084 203.546 195.253 203.182 194.34 203.014C187.848 201.81 181.357 200.592 174.824 199.626C174.655 201.754 174.417 202.132 174.557 202.132C175.976 202.44 196.222 206.906 196.405 206.5Z" fill="#FFB481"/>
<path d="M218.955 189.952C219.166 189.336 217.803 187.152 217.157 187.152C212.689 187.026 208.263 186.298 203.796 186.298C201.196 186.298 198.611 186.06 196.026 185.836C196.686 188.482 196.546 188.384 196.686 188.454C218.183 189.868 218.646 190.876 218.955 189.952Z" fill="#FFB481"/>
<path d="M213.644 170.394C215.049 170.394 213.644 169.834 212.239 167.986C205.313 167.986 208.361 166.67 204.568 170.45L209.879 170.73C210.666 170.8 212.155 170.366 213.644 170.394Z" fill="#FFB481"/>
<path d="M198.751 168C199.037 168.806 199.45 169.562 199.974 170.24C203.697 170.422 202.784 170.856 205.594 168.07C206.184 167.384 205.748 167.888 198.751 168Z" fill="#FFB481"/>
<path d="M192.485 167.706C191.572 167.706 191.726 167.328 192.274 169.848C193.216 169.848 197.894 170.114 198.779 170.17C197.248 167.594 198.33 168.028 196.981 167.944C195.632 167.86 194.002 167.762 192.485 167.706Z" fill="#FFB481"/>
<path d="M220.585 206.78C216.735 206.458 212.942 205.674 209.078 205.492C206.891 205.325 204.721 204.988 202.587 204.484C203.36 205.884 203.992 206.836 204.582 207.844C223.943 209.426 222.847 209.426 222.847 208.782C221.99 206.906 222.552 206.934 220.585 206.78Z" fill="#FFB481"/>
<path d="M189.914 187.796C190.954 188.006 190.616 187.586 190.307 185.78C189.914 185.318 189.83 185.556 184.167 185.164C172.927 184.394 168.558 181.594 168.038 181.44C168.437 182.533 168.906 183.599 169.443 184.632C173.363 186.466 187.034 187.488 189.914 187.796Z" fill="#FFB481"/>
<path d="M186.978 169.218C186.5 167.314 186.598 167.216 185.938 167.146C180.866 166.614 174.993 164.85 173.672 164.752C172.902 165.385 172.17 166.062 171.48 166.782C187.75 169.554 186.865 169.4 186.978 169.218Z" fill="#FFB481"/>
<path d="M188.003 149.156C187.581 149.534 187.343 148.106 188.214 151.648C189.464 151.648 189.155 151.466 189.324 150.122C189.394 149.52 189.801 148.932 188.003 149.156Z" fill="#FFB481"/>
<path d="M241.295 149.016C239.254 147.911 237.152 146.92 235 146.048C233.764 145.586 232.598 143.976 231.347 144.774C230.097 145.572 229.774 147.056 229.001 148.232C228.65 148.75 233.3 148.008 232.471 150.738C228.987 147.938 224.617 152.306 223.114 156.338C222.902 156.94 222.854 157.588 222.975 158.215C223.096 158.842 223.381 159.426 223.803 159.908C224.87 161.392 226.613 159.754 227.399 158.102C228.678 155.414 231.741 150.626 234.677 151.298C240.677 152.698 236.49 157.528 236.307 159.362C235.085 171.5 234.902 166.082 238.302 168.098C243.318 170.324 238.302 171.906 239.918 174.146C241.534 176.386 241.126 178.822 238.513 180.25C236.532 181.328 235.408 181.02 236.124 182.434C238.766 187.684 238.78 193.284 243.655 198.1C247.702 202.09 245.847 206.598 246.957 208.054C247.472 205.585 247.796 203.081 247.926 200.564C247.814 193.816 245.004 192.822 245.678 183.414C246.142 176.4 255.809 156.296 241.295 149.016Z" fill="#FFE4CA"/>
<path d="M235.31 152.6C234.41 152.418 233.343 152.18 232.598 153.468C231.123 156.044 225.573 160.944 229.451 163.38C230.224 163.856 230.856 162.932 231.362 162.442C233.249 160.588 234.888 158.499 236.237 156.226C236.841 155.246 236.799 152.852 235.31 152.6Z" fill="#FFE4CA"/>
<path d="M180.121 95.8581C178.716 104.468 180.95 104.048 179.194 107.968C176.215 114.604 177.789 120.428 182.482 125.65C184.073 127.216 185.992 128.411 188.102 129.15C193.722 131.516 196.335 131.11 198.513 135.212C199.257 136.612 200.747 139.16 200.171 139.496C199.595 139.832 199.285 139.076 198.653 138.544C198.4 138.348 198.344 137.76 197.852 138.054C197.361 138.348 197.108 138.46 197.037 139.048C196.234 145.871 196.14 152.758 196.756 159.6C196.981 161.84 205.186 161 207.449 160.832C210.146 160.692 206.535 157.458 206.044 151.802C205.552 146.146 210.469 145.18 215.696 145.306C214.853 132.272 213.982 126.644 217.101 126.196C222.875 125.342 220.065 134.596 223.325 144.284C225.056 140.852 227.223 137.657 229.774 134.778C228.66 134.692 227.558 134.49 226.486 134.176C222.665 132.65 222.004 129.206 223.395 125.356C223.592 124.824 224.224 124.39 224.393 123.872C223.999 122.752 216.441 121.282 218.267 112.868C218.674 109.074 220.389 106.904 224.519 100.954C224.983 100.268 224.899 100.702 223.887 99.5541C219.981 94.9481 220.698 86.5341 220.684 86.3941C220.403 85.8481 214.305 84.0701 208.32 77.8821C207.233 76.9662 206.422 75.7697 205.973 74.4241C205.439 74.3401 205.229 74.9141 204.203 76.1181C204.47 75.8801 204.765 75.6001 205.06 75.9361C205.355 76.2721 204.807 76.5941 204.582 76.8181C200.367 81.1581 195.183 84.2941 190.012 87.3881C188.298 88.4101 188.088 88.1581 190.012 88.2981C186.914 89.6704 184.113 91.6293 181.765 94.0661C181.582 93.3101 181.582 93.3101 184.196 90.4821C183.381 90.6221 182.678 91.0561 181.863 91.1961C181.033 92.2355 180.352 93.3852 179.84 94.6121C180.557 94.7521 180.192 95.3961 180.121 95.8581ZM214.178 104.818C210.371 104.818 211.059 98.9101 214.488 98.8681C215.243 98.89 215.96 99.2054 216.485 99.7469C217.01 100.288 217.302 101.013 217.298 101.766C217.208 102.554 216.849 103.287 216.281 103.843C215.713 104.399 214.971 104.743 214.178 104.818ZM220.079 94.1081C219.953 94.8501 218.984 94.9621 218.674 95.6901C218.674 95.8581 218.379 95.6061 218.253 95.5081C211.734 90.7201 206.254 97.1461 206.577 93.7301C206.774 91.5881 206.887 91.4481 209.05 90.9301C214.965 89.3481 220.276 92.9881 220.079 94.1081ZM205.777 85.0501C210.036 83.7958 214.618 84.2479 218.548 86.3101C218.901 86.4602 219.202 86.7098 219.414 87.0282C219.626 87.3466 219.74 87.7199 219.742 88.1021C212.717 83.0061 205.383 86.7021 205.074 85.7221C204.934 85.2321 205.453 85.1341 205.777 85.0501ZM200.915 107.576C205.889 107.576 209.809 107.576 208.825 112.434C207.715 117.922 203.655 120.33 202.222 122.234C200.606 124.39 191.909 124.25 188.411 116.032C187.872 114.675 187.467 113.268 187.202 111.832C187.057 111.437 187.074 111 187.25 110.617C187.427 110.234 187.748 109.936 188.144 109.788C191.684 107.8 196.7 107.548 200.915 107.576ZM189.254 103.376C191.713 99.5681 197.192 96.4881 197.571 98.2241C197.712 98.9101 197.066 98.6161 196.742 98.7421C194.394 99.7318 192.349 101.32 190.813 103.348C190.772 103.413 190.75 103.488 190.75 103.565C190.75 103.642 190.772 103.717 190.813 103.782C190.852 103.85 190.91 103.905 190.98 103.94C191.05 103.975 191.129 103.988 191.207 103.978C193.188 103.782 194.902 102.97 196.672 102.774C196.773 102.766 196.874 102.792 196.958 102.848C197.042 102.904 197.105 102.986 197.136 103.082C197.16 103.179 197.151 103.281 197.11 103.373C197.07 103.464 197 103.539 196.911 103.586C190.097 106.876 188.102 105.084 189.212 103.376H189.254ZM186.191 92.9321C186.444 92.3021 186.767 91.5321 187.596 91.7981C188.425 92.0641 188.411 92.7921 188.326 93.4921C188.335 95.2109 187.94 96.9079 187.174 98.4481C186.022 100.296 183.493 99.6241 186.149 92.9321H186.191ZM184.786 100.982C185.563 100.974 186.311 101.271 186.871 101.808C187.431 102.344 187.756 103.078 187.779 103.852C187.678 104.73 187.277 105.547 186.642 106.165C186.007 106.782 185.178 107.162 184.294 107.24C183.489 107.186 182.733 106.837 182.17 106.26C181.607 105.684 181.278 104.921 181.245 104.118C181.332 103.258 181.737 102.461 182.381 101.881C183.025 101.302 183.862 100.981 184.73 100.982H184.786Z" fill="#FFE4CA"/>
<path d="M222.65 173.936C218.309 174.202 216.286 170.73 218.365 173.558C219.208 173.39 219.77 175.644 220.374 176.246C221.779 176.96 224.814 174.328 227.231 175.42C227.512 175.518 227.877 175.714 228.144 175.294C230.097 172.13 233.623 173.656 233.258 171.556C233.174 171.08 233.356 171.262 232.626 171.668C232.317 171.836 231.867 172.256 231.516 171.836C230.856 170.982 234.101 171.164 234.677 160.874C232.443 162.764 229.451 168.028 226.767 161.616C226.703 161.397 226.661 161.172 226.641 160.944C226.102 161.206 225.504 161.322 224.906 161.278C224.309 161.235 223.734 161.034 223.239 160.697C222.745 160.359 222.35 159.897 222.093 159.358C221.837 158.818 221.728 158.221 221.779 157.626C221.667 152.46 226.879 149.478 227.132 148.904C231.347 139.482 239.581 135.702 237.276 132.776C235.773 130.858 231.46 134.792 229.844 136.626C226.135 140.826 224.645 146.202 223.086 145.922C221.526 145.642 220.88 139.986 220.711 138.502C219.517 128.548 219.84 127.302 217.536 127.456C216.131 127.456 216.412 128.744 216.37 129.5C215.948 138.474 217.311 139.706 216.693 143.248C216.468 144.648 216.51 145.516 218.098 146.188C220.487 147.168 220.43 149.226 218.168 150.542C217.224 151.059 216.253 151.526 215.26 151.942C216.523 152.578 217.547 153.602 218.182 154.862C218.817 156.123 219.029 157.553 218.787 158.942C218.787 159.348 218.787 159.936 218.267 159.922C217.747 159.908 217.972 159.278 217.93 158.914C217.55 155.89 216.525 153.314 213.223 152.446C209.008 151.256 222.763 149.982 217.606 146.916C215.597 145.712 213.476 146.09 211.382 146.58C203.908 148.344 208.657 155.806 212.127 164.78C215.077 172.2 220.824 171.738 222.65 173.936Z" fill="#FFE4CA"/>
<path d="M195.984 159.922C195.282 153.028 195.367 146.077 196.236 139.202C194.129 140.112 193.216 139.944 192.569 142.212C190.279 150.304 188.017 157.682 195.984 159.922Z" fill="#FFE4CA"/>
<path d="M244.765 212.716C246.17 210 245.173 208.768 245.074 205.786C244.821 198.31 241.084 199.514 238.218 191.576C235.281 183.414 235.197 178.094 233.09 185.542C232.162 188.804 230.701 189.616 227.47 188.51C225.601 187.852 223.887 186.284 220.599 187.11C219.981 187.264 219.798 187.278 219.995 187.992C221.864 194.992 220.22 200.984 225.868 212.898C227.273 216.006 232.331 218.638 237.614 217.91C240.253 216.558 242.666 214.806 244.765 212.716Z" fill="#FFE4CA"/>
<path d="M59.5159 91.616C62.9441 92.19 68.1566 94.598 69.1682 91.77C70.5732 87.738 73.875 73.57 74.2122 71.876C76.3197 61.95 75.856 60.858 79.3545 50.47C81.0124 45.57 88.5151 17.094 85.129 13.3C74.7537 11.4255 64.2783 10.1493 53.7554 9.478C46.4775 9.058 51.0859 10.5 41.9393 38.402C42.5716 38.724 45.8593 36.386 48.9643 36.05C55.3852 35.364 62.1011 38.01 63.3094 39.13C65.0235 40.278 63.9135 44.114 63.1127 46.004C62.5507 47.404 60.9209 47.488 59.6002 47.838C53.9802 49.364 50.0181 45.836 44.9601 49.238C65.1218 47.768 67.2574 47.488 68.8451 55.496C69.8707 60.508 64.321 59.584 43.9766 61.88C40.5765 62.258 38.3566 64.26 36.1929 66.29C36.4681 66.3253 36.7466 66.3253 37.0218 66.29C39.2336 65.9984 41.4675 65.9094 43.6956 66.024C44.8809 65.9994 46.0461 66.3312 47.0395 66.976C62.0308 75.74 61.9606 74.634 59.6845 80.346C59.1646 81.746 58.8836 82.936 56.8745 82.754C48.8379 82.026 46.1965 78.554 39.2839 78.232C46.8006 81.438 45.6907 82.236 47.9246 85.904C49.6809 88.802 49.9338 89.11 50.5801 89.264C53.7132 89.936 56.5232 91.126 59.5159 91.616ZM62.0308 19.852C52.1115 18.102 51.4933 18.2 50.4817 17.178C48.6131 15.694 49.5263 12.978 51.1561 11.396C52.3363 10.248 53.1934 10.402 63.211 12.6C65.8243 13.188 66.302 14.378 66.302 16.324C66.302 18.998 64.7003 20.328 62.0308 19.852Z" fill="#9BB067"/>
<path d="M164.188 249.956C164.807 243.53 167.94 241.794 167.856 238.126C167.856 236.95 167.659 237.342 166.97 236.81C165.565 235.704 165.565 234.542 166.535 232.932C167.115 232.03 167.82 231.215 168.628 230.51C171.031 228.592 164.582 229.908 165.439 225.582C166.5 220.804 168.059 216.149 170.089 211.694C170.725 210.747 171.486 209.89 172.352 209.146C172.787 207.144 172.815 199.962 173.602 196.784C173.742 194.124 174.108 193.55 172.843 191.45C168.53 184.338 165.383 181.048 165.818 175.574C165.734 171.724 167.392 169.974 169.092 168.07C171.306 165.606 173.779 163.386 176.468 161.448C179.278 159.488 178.267 159.194 181.077 151.928C182.482 148.204 180.599 147.924 180.529 143.528C180.471 142.758 180.348 141.995 180.163 141.246C180.002 140.782 179.743 140.357 179.405 140C177.691 139.327 175.83 139.12 174.009 139.398C169.092 140.56 166.689 150.01 165.242 155.358C164.062 159.726 163.767 163.03 162.727 183.54C162.376 190.54 163.753 189.14 160.592 197.372C154.972 211.932 148.677 248.43 150.616 250.404C150.723 250.526 150.782 250.683 150.782 250.845C150.782 251.007 150.723 251.164 150.616 251.286C149.801 252.098 149.998 253.19 149.956 254.086C149.731 258.37 149 265.706 150.209 269.696C149.926 269.737 149.638 269.713 149.366 269.626C149.464 270.158 149.759 270.424 150.56 270.256C151.677 270.031 152.759 269.659 153.777 269.15C158.821 266.532 164.062 259.966 164.652 258.776C163.67 255.937 163.51 252.881 164.188 249.956Z" fill="#FFE4CA"/>
<path d="M128.122 20.5939C131.766 19.8058 135.367 18.8339 138.912 17.6819C139.878 17.3944 140.736 16.8267 141.377 16.0512C142.018 15.2757 142.412 14.3276 142.509 13.3279C142.509 10.9339 139.699 10.2199 137.676 10.7799C136.931 10.9759 136.088 11.4239 135.456 11.2279C134.824 11.0319 135.316 10.2339 134.571 8.70789C134.429 8.28336 134.175 7.90458 133.836 7.61091C133.497 7.31723 133.085 7.11939 132.643 7.03794C132.202 6.95649 131.746 6.9944 131.324 7.14774C130.902 7.30108 130.529 7.56425 130.244 7.90989C128.291 9.79989 127.701 13.6499 126.45 18.6619C126.029 20.1879 126.591 20.9999 128.122 20.5939ZM128.825 17.1219C131.635 5.80989 133.728 8.98789 132.73 13.0899C132.421 14.3639 133.475 15.1619 134.557 14.3079C135.734 13.3106 137.227 12.7601 138.772 12.7539C139.292 12.7539 139.966 12.5719 140.177 13.2439C140.669 14.7839 138.027 15.8899 136.397 16.2539C128.81 17.9199 128.544 18.1999 128.825 17.1219Z" fill="#F67D2A"/>
<path d="M117.5 123.704C116.812 123.41 114.803 124.222 112.147 123.046C103.338 119.098 104.11 117.754 98.6029 115.164C97.0156 114.168 95.1943 113.603 93.3201 113.526C89.372 113.862 86.9976 113.652 87.4472 114.618C88.1216 115.22 95.5681 122.556 94.8656 124.054L94.43 123.634C94.2052 123.634 94.0366 123.354 93.868 123.2C86.843 116.312 85.9719 113.064 88.7117 121.03C89.4704 123.256 89.5125 125.748 91.0159 127.736C91.9853 129.024 89.4282 135.198 88.7819 140.182C88.7819 140.798 88.0794 140.644 87.967 140.266C87.4612 140.182 87.672 139.608 87.6579 139.258C87.4753 133.658 91.4374 128.17 89.2877 126.042C87.7703 124.6 84.9041 110.39 78.8205 103.264C77.3031 102.298 73.5517 105.084 68.1144 105.7C70.1376 106.89 70.826 107.45 70.6996 106.666C70.3764 104.93 71.6269 106.442 75.0832 108.066C75.5931 108.3 76.0407 108.65 76.3898 109.088C76.8511 109.514 77.1876 110.056 77.3633 110.658C77.539 111.26 77.5473 111.898 77.3874 112.504C75.7997 125.692 74.6898 136.066 69.8285 148.904C68.578 152.18 68.1706 149.408 68.7607 147.952C69.6037 145.894 68.1003 145.992 67.5664 145.628C64.5035 143.528 61.0051 142.212 57.7314 140.14C58.4761 143.822 59.2348 147.308 61.4968 150.248C69.14 160.146 65.6135 161.182 81.6586 148.848C83.0636 147.756 83.5694 149.324 83.9768 150.92C84.0054 151.04 83.9958 151.167 83.9493 151.282C83.9028 151.398 83.8216 151.496 83.717 151.563C83.6124 151.631 83.4894 151.664 83.3649 151.659C83.2403 151.654 83.1204 151.611 83.0214 151.536C81.4478 150.29 83.471 150.416 73.3972 157.234C73.9592 157.486 74.3104 157.906 74.8022 158.144C76.0948 158.774 82.6702 160.356 86.0422 164.01C89.0067 166.81 87.9108 168.826 89.5687 170.016C90.8473 170.912 93.7837 170.996 94.8375 169.862C106.92 156.842 101.862 161.98 123.429 135.464C123.519 135.372 123.57 135.249 123.57 135.121C123.57 134.992 123.519 134.869 123.429 134.778C121.87 131.838 119.214 124.964 117.5 123.704ZM105.375 131.46C103.563 139.869 99.9809 147.8 94.8656 154.728C90.5803 160.244 88.4447 158.48 89.6811 157.64C97.6896 152.446 101.806 137.886 103.886 131.712C105.164 127.974 105.909 129.444 105.375 131.46Z" fill="#FFB481"/>
<path d="M259.166 250.278C259.086 249.569 258.863 248.884 258.511 248.263C258.158 247.642 257.683 247.099 257.115 246.666C256.764 246.456 237.726 238.266 237.276 238.588C242.756 250.516 243.599 260.372 248.376 264.026C249.935 265.006 252.83 265.552 259.883 266.826C261.386 267.106 262.061 266.406 262.061 264.922C262.061 257.852 260.22 257.04 259.166 250.278Z" fill="#FFB481"/>
<path d="M174.796 62.8738C173.748 60.8098 172.117 59.0966 170.104 57.9458C173.04 67.7458 170.778 76.1458 171.509 77.2238C173.276 79.8618 174.331 82.9092 174.571 86.0718C176.651 84.6718 175.569 82.8238 176.3 79.2678C177.49 73.7783 176.965 68.0575 174.796 62.8738Z" fill="#FFB481"/>
<path d="M170.342 75.67C171.03 70.725 170.888 65.7004 169.921 60.802C169.654 59.5 169.682 57.806 168.516 57.092C165.748 55.3445 162.688 54.1068 159.481 53.438C161.735 56.9188 163.286 60.8039 164.048 64.876C164.694 68.236 162.01 64.134 170.342 75.67Z" fill="#FFB481"/>
<path d="M189.914 163.8C188.326 156.926 185.853 150.262 184.94 143.22C184.865 142.79 184.701 142.38 184.46 142.016C184.218 141.652 183.903 141.342 183.535 141.106C182.496 140.868 181.653 140.462 181.301 141.386C182.931 146.426 178.266 129.528 185.938 163.142C187.09 168.182 188.748 173.11 189.661 178.206C194.874 206.206 201.28 213.024 208.797 220.584C209.71 221.256 210.343 218.092 209.977 217.672C194.059 198.282 196.405 191.8 189.914 163.8Z" fill="#FFB481"/>
<path d="M190.63 38.5137C192.71 39.2277 193.159 39.1017 193.806 37.0157C198.569 21.6157 198.695 21.0557 198.021 18.2697C198.386 16.8697 197.543 16.8697 187.82 12.0257C187.637 11.9082 187.428 11.8349 187.211 11.8117C186.994 11.7885 186.774 11.816 186.57 11.8921C186.365 11.9682 186.181 12.0908 186.032 12.2501C185.884 12.4093 185.774 12.601 185.713 12.8097C183.774 17.1077 185.952 17.0097 177.283 14.8397C174.22 13.9997 174.684 16.7997 170.693 29.0357C169.569 32.5217 168.6 31.0237 190.63 38.5137ZM187.483 15.2177C187.708 14.1817 187.834 14.5737 194.958 18.1157C195.787 18.5217 195.477 19.3477 194.845 19.2777C185.263 16.7997 186.865 17.9057 187.483 15.2177ZM192.653 23.7997C192.541 24.9757 190.799 24.4997 190.799 23.4777C190.799 22.4557 192.583 22.6097 192.653 23.7997ZM172.815 29.2317C176.384 16.4777 175.751 16.8837 177.03 17.2477L191.796 21.3357C189.267 22.6237 188.748 23.4497 189.464 24.8217C190.869 27.4537 195.534 26.0397 193.173 21.8957C193.834 21.6017 194.382 22.0917 194.972 22.1477C195.562 22.2037 195.463 22.6797 195.337 23.1277C191.361 36.0917 191.825 36.3857 190.293 35.8957C171.831 29.8057 172.421 30.4497 172.815 29.2317Z" fill="#9BB067"/>
<path d="M158.554 44.6875C158.737 44.9936 159.014 45.2331 159.344 45.3708C159.674 45.5085 160.039 45.5372 160.387 45.4526C160.734 45.368 161.045 45.1746 161.274 44.9008C161.503 44.627 161.638 44.2873 161.659 43.9315C162.544 39.3395 161.856 40.3755 168.249 40.2915C170.454 40.2915 171.354 37.8415 168.811 36.8615C164.329 35.1675 163.64 35.2235 164.076 33.9635C164.511 32.7035 163.528 31.0375 161.505 31.9755C159.706 32.8155 159.158 33.2915 157.402 32.5075C153.061 30.5755 152.4 30.4635 151.627 31.3875C150.138 33.1515 154.142 35.2935 152.091 36.1335C150.691 36.8834 149.16 37.3587 147.581 37.5335C146.682 37.5335 145.839 37.6875 145.839 38.7795C145.839 39.8715 146.71 40.2495 147.651 40.2635C157.866 40.7115 154.283 38.4715 158.554 44.6875Z" fill="#F67D2A"/>
<path d="M166.9 139.734C164.469 138.124 161.154 136.934 159.482 134.736C159.088 134.232 159.313 134.358 154.986 139.23C154.353 139.958 154.606 139.58 158.92 144.368C160.212 145.768 163.402 149.408 164.863 150.724C167.94 140.686 170.103 141.806 166.9 139.734Z" fill="#FFB481"/>
<path d="M246.887 225.932C255.443 243.754 252.099 243.894 254.951 244.132C255.401 244.132 255.752 244.286 255.57 243.474C253.223 232.862 248.39 225.428 245.636 219.674C245.149 218.459 244.595 217.272 243.978 216.118C242.334 217.966 241.421 214.508 246.887 225.932Z" fill="#FFB481"/>
<path d="M243.922 260.848C239.553 252.448 238.949 240.24 234.565 237.048C234.944 239.372 235.211 241.346 235.633 243.292C236.11 245.504 239.609 255.668 239.707 255.78C240.462 256.005 241.104 256.504 241.506 257.18C243.627 259.504 242.11 259.98 241.801 259.35C241.47 258.551 240.994 257.82 240.396 257.194C239.244 256.382 238.78 257.53 238.26 258.146C237.515 259.028 238.625 258.566 242.391 260.75C243.093 261.156 243.922 262.262 244.737 262.556C244.639 262.276 244.639 262.43 243.922 260.848Z" fill="#FFB481"/>
<path d="M238.358 254.8C234.902 244.482 234.776 247.478 233.272 236.39C233.16 235.48 232.457 234.808 231.867 234.822C230.828 234.822 231.221 235.886 231.277 236.558C231.853 242.382 234.017 252.672 236.897 257.362C237.782 257.404 238.639 255.696 238.358 254.8Z" fill="#FFB481"/>
<path d="M160.451 94.2755C155.154 94.1915 155.337 102.592 160.367 102.676C165.79 102.746 164.891 94.3455 160.451 94.2755Z" fill="#FFB481"/>
<path d="M126.296 88.5077C123.795 86.6317 120.043 89.5157 121.505 94.2057C121.632 94.6446 121.857 95.0491 122.164 95.3888C122.47 95.7285 122.85 95.9945 123.275 96.167C123.699 96.3394 124.157 96.4138 124.615 96.3845C125.072 96.3551 125.517 96.2229 125.916 95.9977C129.021 94.4577 129.26 90.6777 126.296 88.5077Z" fill="#FFB481"/>
<path d="M218.843 224.686C218.309 224.042 218.52 224.294 217.887 225.19C216.665 226.926 217.635 227.668 218.126 228.452C221.288 231.952 220.388 237.384 220.936 238.252C221.962 238.966 223.746 236.992 223.592 235.914C223.177 231.781 221.522 227.868 218.843 224.686Z" fill="#FFB481"/>
<path d="M204.54 261.912C204.555 262.401 204.73 262.871 205.038 263.253C205.345 263.634 205.769 263.905 206.245 264.025C206.721 264.145 207.223 264.108 207.676 263.919C208.129 263.729 208.508 263.398 208.755 262.976C207.35 261.772 205.945 260.54 204.54 259.308C204.491 260.175 204.491 261.044 204.54 261.912Z" fill="#FFB481"/>
<path d="M205.594 254.996C204.386 255.5 204.484 256.634 204.484 257.95C205.706 259.098 204.484 258.062 209.064 261.982C209.879 257.012 207.153 254.366 205.594 254.996Z" fill="#FFB481"/>
<path d="M204.751 242.732C204.763 242.087 204.523 241.463 204.083 240.991C203.643 240.518 203.036 240.234 202.39 240.198C201.81 240.218 201.258 240.452 200.842 240.856C200.426 241.26 200.177 241.804 200.142 242.382C200.099 244.016 200.269 245.649 200.648 247.24C200.731 247.721 200.999 248.151 201.395 248.439C201.791 248.726 202.284 248.849 202.77 248.78C205.355 248.528 204.765 245.518 204.751 242.732Z" fill="#FFB481"/>
<path d="M241.323 236.166C243.164 235.746 242.363 233.366 242.222 231.238C241.843 230.118 241.548 229.726 242.096 229.502C242.096 229.118 242.039 228.735 241.927 228.368C241.323 229.768 240.62 231.364 241.154 232.344C242.068 234.108 238.78 233.38 239.749 230.16C240.067 229.133 240.471 228.136 240.958 227.178C237.951 226.016 237.909 231.854 238.583 234.766C238.814 235.273 239.21 235.688 239.708 235.943C240.205 236.197 240.775 236.275 241.323 236.166Z" fill="#FFB481"/>
<path d="M177.508 232.106C176.974 229.306 173.461 229.53 173.11 231.392C172.407 234.976 174.164 239.666 176.426 237.594C176.911 237.102 177.268 236.499 177.464 235.837C177.66 235.175 177.69 234.475 177.55 233.8C177.583 233.235 177.569 232.668 177.508 232.106Z" fill="#FFB481"/>
<path d="M181.484 228.326C183.128 228.774 184.772 229.25 186.387 229.726C186.293 229.07 186.161 228.421 185.994 227.78C185.888 227.213 185.569 226.707 185.103 226.366C184.636 226.025 184.056 225.873 183.482 225.943C182.907 226.012 182.38 226.298 182.009 226.74C181.638 227.183 181.45 227.75 181.484 228.326Z" fill="#FFB481"/>
<path d="M186.345 231C184.758 230.51 183.156 230.02 181.554 229.6C182.243 234.808 186.008 233.87 186.345 231Z" fill="#FFB481"/>
<path d="M216.497 255.836C217.396 255.542 217.803 254.772 217.902 253.554C217.396 252.266 216.918 250.754 216.187 249.256C215.947 248.883 215.589 248.601 215.169 248.455C214.75 248.308 214.293 248.305 213.872 248.447C213.451 248.588 213.089 248.866 212.844 249.236C212.599 249.606 212.485 250.046 212.52 250.488C212.872 253.148 213.939 256.704 216.497 255.836Z" fill="#FFB481"/>
<path d="M203.388 227.458C202.979 227.272 202.6 227.027 202.264 226.73C201.84 226.777 201.434 226.93 201.085 227.174C200.737 227.419 200.456 227.748 200.269 228.13L204.484 231.574C204.596 230.118 204.21 228.667 203.388 227.458Z" fill="#FFB481"/>
<path d="M204.343 232.274C202.624 231.469 201.139 230.24 200.03 228.704C199.837 229.372 199.794 230.075 199.903 230.762C199.848 231.259 199.848 231.762 199.903 232.26C199.902 232.846 200.134 233.41 200.549 233.826C200.964 234.242 201.528 234.477 202.116 234.479C202.705 234.48 203.27 234.249 203.688 233.836C204.106 233.422 204.341 232.86 204.343 232.274Z" fill="#FFB481"/>
<path d="M231.474 229.894C232.038 229.799 232.549 229.505 232.913 229.065C233.277 228.626 233.47 228.07 233.455 227.5C233.286 224.308 233.047 221.802 230.912 222.054C228.776 222.306 229.17 224.028 229.17 225.722V227.626C229.204 228.221 229.458 228.782 229.884 229.201C230.31 229.62 230.876 229.867 231.474 229.894Z" fill="#FFB481"/>
<path d="M215.302 265.314C215.022 265.347 214.756 265.46 214.537 265.639C214.318 265.817 214.155 266.054 214.066 266.322C214.544 266.756 215.612 267.414 215.035 268.002C214.459 268.59 214.192 268.002 213.841 267.638C213.764 268.574 213.82 269.517 214.01 270.438C215.389 270.859 216.798 271.177 218.225 271.39C218.295 271.18 218.351 270.942 218.407 270.704C217.958 268.52 217.522 265.034 215.302 265.314Z" fill="#FFB481"/>
<path d="M173.771 225.064C173.377 222.698 173.419 220.43 171.045 220.752C168.67 221.074 169.317 224.126 170.047 226.646C170.511 228.326 173.714 228.494 173.771 225.064Z" fill="#FFB481"/>
<path d="M223.254 228.55C223.626 230.85 224.483 233.045 225.769 234.99C229.099 237.636 228.846 237.622 229.183 235.564C229.563 233.1 230.645 234.906 223.254 228.55Z" fill="#FFB481"/>
<path d="M215.611 230.314C215.519 229.885 215.268 229.506 214.907 229.255C214.547 229.003 214.104 228.897 213.668 228.957C213.232 229.017 212.835 229.24 212.557 229.58C212.279 229.92 212.14 230.352 212.169 230.79C212.139 231.487 212.172 232.185 212.267 232.876C213.433 232.988 214.614 233.142 215.766 233.352C216.116 232.358 216.06 231.267 215.611 230.314Z" fill="#FFB481"/>
<path d="M181.245 31.3878C182.874 31.3844 184.437 30.7447 185.598 29.6062C186.759 28.4676 187.426 26.9208 187.455 25.2978C187.389 23.8111 186.743 22.4091 185.653 21.3914C184.563 20.3737 183.117 19.8211 181.624 19.8518C174.22 19.9358 173.236 31.3878 181.245 31.3878ZM182.13 22.1198C183.001 22.2078 183.806 22.6201 184.384 23.2743C184.962 23.9285 185.271 24.7762 185.249 25.6478C185.208 26.697 184.775 27.6928 184.033 28.4392C183.292 29.1855 182.297 29.6281 181.245 29.6798C180.367 29.6513 179.534 29.2883 178.917 28.6658C178.3 28.0432 177.947 27.2085 177.929 26.3338C177.971 25.2295 178.43 24.1816 179.214 23.4002C179.998 22.6187 181.05 22.1614 182.158 22.1198H182.13Z" fill="#9BB067"/>
<path d="M260.656 248.29C260.614 247.921 260.489 247.567 260.289 247.254C260.09 246.941 259.821 246.678 259.504 246.484C257.059 245.532 257.396 243.684 256.146 239.554C252.437 227.08 244.386 215.754 245.131 214.914C246.831 212.842 247.027 210.028 248.531 207.914C248.743 207.508 248.876 207.067 248.924 206.612C251.608 193.354 244.709 192.178 248.25 177.8C251.2 165.788 252.788 153.188 241.295 147.518C233.09 143.458 231.46 143.976 233.019 142.408C239.876 135.226 240.311 134.484 237.937 131.53C236.897 130.466 235.787 130.774 234.523 131.306C231.165 132.706 230.912 134.778 227.68 133.462C224.449 132.146 223.016 129.976 225.18 125.65C227.554 120.89 218.239 122.668 219.489 113.904C220.74 105.14 234.86 92.4979 233.23 91.2799C232.542 90.7759 232.429 92.3019 226.486 98.9239C225.404 100.142 225.404 100.128 224.491 98.7139C222.271 95.2279 221.681 90.9159 221.372 86.5199C225.461 88.0319 231.685 89.8239 235.52 89.3199C235.858 89.3199 236.349 89.3199 236.293 88.7739C236.237 88.2279 235.801 88.4659 235.52 88.4659C225.194 88.4659 211.832 81.4659 207.547 75.7119C203.669 70.4759 206.142 79.4499 219.911 85.8899C220.332 86.0859 220.838 86.0719 220.74 86.8419C220.262 90.9019 221.372 97.3839 224.8 100.45C225.447 101.024 219.658 106.162 218.253 112.84C216.454 121.24 223.971 122.64 224.379 123.844C224.604 124.502 223.746 125.412 223.142 127.386C222.897 128.047 222.788 128.75 222.824 129.454C222.86 130.158 223.039 130.847 223.35 131.479C223.662 132.112 224.099 132.675 224.636 133.133C225.173 133.592 225.797 133.937 226.472 134.148C227.541 134.475 228.644 134.677 229.76 134.75C227.217 137.64 225.05 140.839 223.311 144.27C220.051 134.554 222.889 125.328 217.087 126.168C215.583 126.392 215.316 127.47 215.162 128.73C214.74 132.118 214.867 131.53 215.738 145.292C210.455 145.152 205.594 146.216 206.086 151.788C206.577 157.36 210.188 160.678 207.491 160.818C205.018 160.944 197.009 161.784 196.799 159.572C196.182 152.734 196.277 145.852 197.08 139.034C197.114 138.811 197.207 138.601 197.35 138.426C197.494 138.251 197.682 138.118 197.894 138.04C198.386 137.746 198.456 138.334 198.695 138.53C199.356 139.076 199.721 139.776 200.213 139.482C200.704 139.188 199.257 136.514 198.555 135.198C196.363 131.082 193.946 131.544 188.144 129.122C186.029 128.394 184.107 127.197 182.524 125.622C177.803 120.414 176.257 114.59 179.236 107.94C181.034 103.95 178.674 104.44 180.163 95.8439C180.163 95.5919 180.613 94.5559 179.91 94.5559C178.744 94.2899 178.168 99.6099 178.126 100.898C177.438 100.534 177.367 99.8899 177.213 99.3719C175.555 94.2059 176.946 89.4459 179.25 84.8399C179.429 84.362 179.752 83.951 180.175 83.6629C180.597 83.3747 181.099 83.2235 181.611 83.2299C181.835 83.2299 182.144 83.1459 181.976 82.8659C181.596 82.2079 182.173 81.8299 182.397 81.4659C190.532 66.3599 216.539 60.8719 228.271 70.9099C231.831 73.7803 234.843 77.2659 237.164 81.1999C234.579 79.5479 233.862 77.9799 233.413 78.3999C233.328 78.5115 233.291 78.6521 233.309 78.791C233.327 78.9299 233.4 79.056 233.511 79.1419C234.242 79.8699 235.591 81.2559 236.883 82.3059C237.037 82.4284 237.225 82.5013 237.422 82.5148C237.618 82.5284 237.814 82.4818 237.984 82.3814C238.153 82.2811 238.288 82.1316 238.37 81.953C238.452 81.7745 238.477 81.5752 238.443 81.3819C238.326 80.4833 238.02 79.6196 237.544 78.8479C229.507 66.6539 219.672 63.5319 205.889 65.2399C196.546 66.4159 183.802 72.9539 180.95 81.9279C180.655 82.8379 178.997 82.1659 177.297 85.7079C175.148 90.2019 173.63 97.4959 177.129 101.36C180.374 104.93 176.538 107.17 176.749 114.73C177.016 124.684 183.058 129.71 192.584 132.384C194.393 132.9 195.942 134.074 196.925 135.674C197.726 136.878 197.417 137.284 196.265 137.788C182.06 143.878 176.384 133.28 170.033 140.42C169.204 141.358 170.033 139.468 165.439 137.13C159.65 134.246 159.538 129.836 152.218 129.388C151.923 129.388 151.558 129.388 151.515 128.954C151.787 127.657 152.466 126.48 153.454 125.594C169.794 117.194 167.968 102.2 172.042 97.5939C173.054 96.454 173.824 95.1225 174.307 93.6792C174.789 92.2359 174.975 90.7103 174.852 89.1939C174.797 88.8234 174.838 88.445 174.971 88.0946C175.104 87.7443 175.324 87.4335 175.611 87.1919C176.398 86.5915 176.978 85.7629 177.273 84.8202C177.567 83.8775 177.561 82.867 177.255 81.9279C176.819 80.5279 178.463 75.7119 177.367 66.5979C177.196 64.4326 176.478 62.3457 175.279 60.5317C174.08 58.7178 172.44 57.2358 170.511 56.2239C167.391 54.4274 164.019 53.1061 160.507 52.3039C156.292 51.4499 157.796 50.4139 153.834 48.8599C145.319 45.5139 130.342 46.4239 128.74 54.6279C127.139 54.7679 127.153 53.8439 126.647 49.4479C126.52 48.3559 125.748 48.5239 125.411 49.0279C121.982 54.2359 122.305 60.7179 122.165 60.6479C119.917 58.7999 118.807 54.5999 117.416 57.5399C116.278 59.9759 116.629 63.9239 117.205 66.3179C115.753 65.0529 114.74 63.362 114.311 61.4879C114.199 61.0819 114.395 60.4519 113.735 60.4379C113.075 60.4239 113.047 61.1239 112.976 61.5579C112.518 63.9704 112.324 66.4256 112.4 68.8799C112.539 70.9716 113.302 72.9742 114.591 74.6307C115.88 76.2871 117.637 77.5217 119.636 78.1759C120.493 78.3999 121.392 78.4699 122.446 78.6379C120.837 81.6926 119.687 84.9662 119.032 88.3539C116.714 86.7999 115.632 86.9539 113.861 89.1099C112.091 91.2659 112.288 93.4219 112.456 95.7319C112.484 97.1965 112.895 98.6285 113.649 99.8859C114.403 101.143 115.474 102.182 116.756 102.9C118.821 104.02 114.873 110.53 124.652 118.972C127.81 121.438 131.139 123.679 134.613 125.678C140.697 129.57 144.575 128.184 151.192 126.714C150.391 128.674 147.399 135.198 148.284 135.548C148.874 135.786 149.071 135.072 149.253 134.652C151.024 130.578 150.785 130.116 151.389 130.298C152.901 130.59 154.372 131.06 155.773 131.698C151.094 132.3 145.01 149.898 135.611 141.19C130.104 135.85 126.097 129.164 123.991 121.8C123.837 121.254 123.556 120.302 122.727 120.204C121.976 120.075 121.206 120.097 120.463 120.267C119.72 120.438 119.019 120.754 118.4 121.198C114.704 123.998 108.255 120.442 104.617 117.586C99.137 113.288 95.5402 110.978 89.9905 111.986C88.3747 112.294 86.8573 112.518 86.5061 114.786C85.1011 111.034 81.4621 100.478 77.2893 101.892C61.8343 107.128 67.2014 104.202 48.3884 93.4919C48.1636 93.3659 47.8826 93.2679 47.8967 92.9179C48.7524 91.8808 49.9641 91.1973 51.2968 90.9999C69.0419 96.7539 70.0395 96.9359 71.4164 91.9239C72.5123 87.9479 88.8103 22.5259 88.7541 16.1699C88.7541 14.1399 87.4755 12.1519 85.9441 11.9699C82.4316 11.4099 78.9191 10.7099 75.4066 10.3739C51.9852 8.10586 49.2595 6.52386 47.6438 11.0879C45.9297 15.9039 47.6438 13.9999 40.689 37.5479C39.284 42.4899 38.6096 37.7439 22.2695 52.6959C18.5322 56.1259 16.4247 59.9339 17.085 65.2959C19.1644 81.7459 21.1876 82.9919 19.5719 87.1499C19.2635 87.8596 19.1505 88.6383 19.2443 89.406C19.3381 90.1737 19.6355 90.9026 20.1058 91.5179C36.0244 114.114 39.8601 124.838 54.4861 137.312C58.6028 140.84 55.8911 145.446 60.1061 150.234C65.8245 156.66 64.855 160.468 69.6039 159.824C71.1611 159.463 72.7738 159.406 74.3528 159.656C78.2267 160.594 81.8413 162.383 84.9325 164.892C87.8408 167.412 87.4334 167.986 87.4755 170.618C87.7846 193.018 84.7639 193.634 83.963 208.544C83.106 224.602 87.1243 228.872 86.478 231.938C85.9019 234.654 89.7376 236.488 89.1756 237.454C87.6582 240.058 87.3069 243.054 86.6747 245.854C85.1432 252.63 88.9929 250.152 88.4028 255.444C88.2342 256.844 88.1499 263.438 89.8078 262.976C90.4822 262.794 90.0748 262.15 90.0326 261.702C89.6999 259.178 89.5777 256.63 89.6673 254.086C93.5709 255.326 97.3115 257.027 100.809 259.154C109.801 265.398 120.367 260.092 124.118 259.154C132.548 257.236 140.866 255.192 149.141 252.532C148.748 255.136 147.413 268.618 149.492 269.528C149.77 269.59 150.058 269.59 150.335 269.528C149.127 265.622 149.858 258.09 150.082 253.918C150.082 252.994 149.928 251.916 150.743 251.118C150.852 250.997 150.913 250.84 150.913 250.677C150.913 250.514 150.852 250.357 150.743 250.236C148.874 248.36 155.126 211.89 160.732 197.218C163.922 188.818 162.503 190.218 162.854 183.372C163.865 164.318 164.09 159.992 165.383 155.204C169.387 140.378 172.071 137.48 179.784 139.916C180.22 140.042 180.079 139.916 180.641 142.996C182.383 152.362 182.692 147.686 180.641 153.062C179.475 156.212 179.686 156.786 179.011 158.312C177.185 162.512 160.1 169.848 167.771 183.008C176.019 197.26 173.391 189.896 173.686 198.618C173.771 201.908 172.534 205.086 172.815 208.418C172.815 209.02 170.722 210.364 170.188 211.61C168.163 216.068 166.605 220.722 165.537 225.498C164.722 229.544 170.455 228.676 169.022 230.146C167.809 231.12 166.846 232.368 166.212 233.786C165.937 234.29 165.872 234.882 166.03 235.434C166.187 235.986 166.555 236.455 167.055 236.74C167.546 237.104 168.46 237.23 168.123 238.266C167.912 238.938 168.277 239.666 167.898 240.38C166.498 243.282 165.337 246.292 164.427 249.382C163.58 252.455 163.718 255.715 164.821 258.706C166.226 256.326 164.385 254.324 165.608 250.446C170.019 236.446 166.886 243.656 173.588 241.598C169.373 253.96 169.823 269.598 171.621 269.332C172.155 269.332 171.972 268.492 171.972 268.016C172.071 263.032 170.567 260.484 172.885 259.448C177.718 257.149 182.048 253.924 185.629 249.956C186.107 249.424 187.947 247.562 188.734 246.554C191.054 247.826 193.659 248.49 196.307 248.486C197.009 248.486 197.009 248.962 197.065 249.354C197.203 250.873 197.691 252.341 198.493 253.64C199.295 254.94 200.389 256.036 201.688 256.844C203.669 258.118 200.072 263.424 201.252 265.832C201.288 265.902 201.346 265.958 201.418 265.991C201.489 266.024 201.569 266.032 201.646 266.014C201.725 265.995 201.796 265.951 201.847 265.887C201.898 265.824 201.926 265.745 201.927 265.664C201.927 263.046 203.472 260.834 203.233 258.062C215.148 267.862 214.305 268.744 215.12 267.862C215.935 266.98 213.054 265.93 204.582 257.796C202.503 255.808 198.962 254.996 198.288 250.894C197.515 246.218 198.288 241.57 198.695 236.894C198.695 236.418 198.695 235.704 199.44 235.578C200.466 235.41 201.337 240.058 204.751 236.908C205.959 235.802 207.477 234.724 208.629 235.886C214.642 242.032 217.466 244.286 219.869 249.186C221.964 252.951 223.578 256.963 224.674 261.128C224.772 261.604 225.039 261.716 225.461 261.45C225.924 260.526 224.435 259.616 229.198 256.648C231.193 255.248 231.291 254.772 229.76 252.868C228.046 250.726 226.95 248.234 225.137 245.994C227.278 245.781 229.321 244.998 231.052 243.726C235.071 255.136 235.872 259.448 238.569 260.386C241.267 261.324 243.571 264.096 246.817 264.376C248.232 265.29 249.811 265.922 251.467 266.238C260.108 267.848 259.672 268.842 262.37 268.268C262.854 268.203 263.297 267.963 263.616 267.594C263.934 267.225 264.106 266.753 264.098 266.266C264.14 258.076 262.538 256.956 260.656 248.29ZM174.796 62.8739C176.925 68.0694 177.415 73.7879 176.201 79.2679C175.344 83.6219 176.707 83.4679 174.501 86.5059C174.34 83.1888 173.271 79.9789 171.41 77.2239C170.708 76.1599 172.97 67.7039 170.005 57.9459C172.052 59.0855 173.718 60.7991 174.796 62.8739ZM168.6 57.0919C169.724 57.8199 169.696 59.4999 170.005 60.8019C170.977 65.6994 171.125 70.7241 170.441 75.6699C162.095 64.1619 164.821 68.1099 164.174 64.8759C163.424 60.7895 161.867 56.8922 159.594 53.4099C162.782 54.1271 165.826 55.3717 168.6 57.0919ZM130.918 52.8219C135.133 47.5019 144.533 47.1379 151.417 49.4619C157.964 51.6739 161.168 58.6179 162.545 65.3939C160.32 63.7941 157.751 62.7346 155.042 62.2999C135.372 60.1859 135.85 63.6159 134.248 61.9219C133.012 60.6339 131.747 59.4019 130.581 58.0579C130.086 57.2579 129.852 56.3243 129.913 55.3864C129.973 54.4484 130.324 53.5522 130.918 52.8219ZM117.191 88.8439C120.142 90.6219 117.023 91.8539 117.191 102.2C110.672 96.6699 114.676 87.3319 117.191 88.8439ZM141.076 126.644C139.631 126.403 138.256 125.854 137.044 125.034C130.019 121.24 124.82 118.342 120.367 112.924C115.913 107.506 120.17 88.3679 121.968 81.5639C122.263 80.4719 123.219 79.6039 122.938 78.2739C122.769 77.4059 121.982 77.9239 119.566 77.0839C117.791 76.3478 116.267 75.1178 115.176 73.5413C114.084 71.9647 113.472 70.1082 113.412 68.1939C113.391 66.7824 113.533 65.3733 113.833 63.9939C114.606 65.3939 116.854 69.0199 118.259 68.2779C119.664 67.5359 117.458 64.8759 117.781 60.6759C117.85 59.766 118.063 58.8728 118.414 58.0299C120.128 60.1019 121.224 62.7759 124.553 62.9579C122.882 62.2159 123.148 60.7879 123.275 59.4859C123.521 56.5108 124.342 53.6111 125.692 50.9459C126.422 54.4179 126.254 54.6559 128.066 56.8679C130.876 60.3819 133.363 66.1359 141.821 66.6679C143.092 66.9576 144.416 66.9239 145.671 66.5699C142.692 65.1699 139.264 65.3519 136.215 63.5739C138.884 62.6079 150.56 62.8459 155.126 63.7139C162.264 65.1139 162.503 68.7399 169.415 77.3639C172.31 81.2663 173.737 86.0578 173.447 90.9019C173.228 92.9781 172.531 94.976 171.41 96.7399C172.014 93.9399 171.003 91.3079 171.298 88.6199C171.298 88.2279 171.298 87.6819 170.764 87.7239C170.23 87.7659 170.511 88.3119 170.455 88.6199C169.71 93.2399 172.436 90.4539 166.451 108.598C165.749 110.791 164.918 112.942 163.964 115.038C158.976 120.008 153.567 127.498 141.104 126.658L141.076 126.644ZM119.524 122.444C119.889 122.304 122.109 120.498 122.853 122.99C125.13 130.536 131.396 142.366 137.957 144.494C144.519 146.622 149.197 140.168 155.576 132.524C156.447 131.488 156.798 132.146 158.695 133.924C153.075 138.544 141.54 158.046 132 146.342C124.792 137.55 122.671 129.696 120.76 126.476C119.158 123.76 117.697 123.2 119.552 122.5L119.524 122.444ZM41.9395 38.4019C51.1703 10.5419 46.3652 9.07186 53.7696 9.49186C64.3171 10.1993 74.8184 11.4752 85.2275 13.3139C88.3326 13.8459 87.2788 18.9139 86.6325 21.9659C81.8555 46.7179 80.4084 43.6519 74.8586 70.2939C73.4536 77.0979 71.7817 83.8459 70.0114 90.5799C69.3089 93.3799 68.0303 93.9959 65.2344 93.2819C53.3902 90.2159 50.9174 89.9079 50.0885 88.9279C47.2785 85.6799 47.0818 82.0259 43.9908 80.5279C37.865 77.7279 38.8766 78.1479 39.4667 78.1759C46.3793 78.5819 49.0769 81.9839 57.0713 82.7119C59.0102 82.8799 59.3053 81.5919 59.8813 80.3039C61.5814 75.9359 61.5673 75.5859 57.5069 73.0799C46.9132 66.5559 45.9297 66.2339 44.0048 66.2619C43.8643 66.2619 36.193 66.3739 36.3335 66.2619C41.4337 61.3899 40.8295 61.9499 62.7335 59.9479C64.2808 59.851 65.8029 59.5108 67.2435 58.9399C67.5797 58.8584 67.8953 58.7086 68.1707 58.5C68.4462 58.2915 68.6754 58.0285 68.8442 57.7276C69.013 57.4267 69.1177 57.0943 69.1517 56.7513C69.1857 56.4082 69.1483 56.0619 69.0419 55.7339C67.9741 49.7559 66.2319 48.7339 60.8789 48.7339C50.2711 48.6359 46.6181 49.8259 44.5809 49.5179C49.9058 45.6259 53.882 49.3499 59.6284 47.8099C60.9491 47.4599 62.593 47.3059 63.1409 45.9759C63.9277 44.0859 65.0517 40.2499 63.3376 39.1019C58.7534 36.5722 53.4428 35.6688 48.276 36.5399C46.0723 37.1713 43.9209 37.9717 41.8411 38.9339C41.813 38.7799 41.8833 38.5979 41.9395 38.4019ZM35.9823 112.406C29.3928 101.514 31.402 106.092 21.0893 90.3559C20.8169 89.9912 20.6408 89.5643 20.5769 89.1143C20.5131 88.6642 20.5637 88.2054 20.724 87.7799C22.705 82.3479 19.319 79.7299 18.2933 63.6019C18.252 62.1844 18.4955 60.7731 19.0094 59.4508C19.5234 58.1285 20.2974 56.9219 21.286 55.9019C30.3904 45.4439 39.9303 41.5099 44.0751 39.1019C49.386 35.9519 56.1581 37.5479 61.9748 39.7459C62.4218 39.8546 62.8212 40.1052 63.1128 40.4599C63.998 41.8599 62.5227 45.8639 60.9351 46.3679C54.6688 48.3419 48.2901 44.3659 42.2064 49.7699C41.6804 50.2155 41.0141 50.4632 40.3237 50.4699C37.9233 50.7413 35.5645 51.3007 33.2987 52.1359C32.8772 52.2479 32.4417 52.4019 32.5681 52.9339C32.8351 54.2079 35.2938 51.7439 46.6181 50.8619C51.8425 50.3533 57.0914 50.1383 62.3401 50.2179C63.1512 50.2693 63.9425 50.4899 64.6626 50.8655C65.3827 51.2411 66.0155 51.7632 66.5202 52.3981C67.0249 53.0329 67.3901 53.7664 67.5921 54.5508C67.7942 55.3353 67.8286 56.1533 67.6931 56.9519C67.3981 58.5479 62.4665 59.0379 60.2045 59.2759C49.119 60.4099 41.1527 59.4299 38.2162 62.9859C35.5608 66.2199 32.2731 66.6259 32.5962 67.5359C32.7227 67.9419 33.1301 67.9839 33.5095 67.9419C36.8253 67.5219 40.1692 67.9419 43.499 67.5079C44.8244 67.361 46.159 67.6885 47.2644 68.4319C62.2136 77.6859 60.2607 74.4799 58.3639 80.4719C57.8441 82.1239 57.7036 82.2079 55.9473 81.8719C48.2339 80.3039 50.3273 78.8339 37.6823 76.4959C36.8393 76.3419 36.1368 77.0419 35.2798 76.7899C35.0971 76.7899 34.9847 76.9719 34.9847 77.1539C34.9847 77.5739 35.3219 77.6439 35.5889 77.7979C42.0238 81.5359 44.7916 80.7099 45.9999 84.2659C47.6719 89.1939 50.7207 90.0339 48.3322 91.0979C46.576 91.8679 45.9437 94.2059 44.1172 92.0919C39.3402 86.6599 39.3402 86.3239 38.1881 87.2339C36.8366 87.824 35.4227 88.2608 33.9731 88.5359C31.964 89.1659 31.4722 90.0479 34.1698 89.7679C35.8699 89.5719 37.3873 88.7319 38.5113 88.6619C38.989 88.6619 39.2981 88.4939 39.6353 88.9279C40.7452 90.3279 43.9767 94.3599 45.7751 94.0239C47.5735 93.6879 55.4837 101.024 63.3657 105.224C77.4157 112.784 76.0107 111.734 75.7438 114.408C74.1421 127.68 73.0181 135.408 69.7725 145.838C66.3865 142.324 63.3938 143.304 58.6449 139.118C49.7632 131.422 42.1199 122.413 35.9823 112.406ZM84.9465 163.072C79.9869 159.376 76.095 159.404 74.0859 157.864C73.4817 157.402 73.1726 158.508 72.5685 157.864C79.0736 153.664 81.8274 150.668 82.4035 150.99C82.6704 151.13 82.9514 151.704 83.4853 152.152C83.5706 152.224 83.6775 152.265 83.7891 152.27C83.9008 152.275 84.0109 152.243 84.1024 152.18C84.1939 152.116 84.2615 152.023 84.2948 151.917C84.328 151.811 84.325 151.696 84.2862 151.592C84.0895 151.046 83.8647 150.5 83.7804 150.192C83.4291 149.03 82.9936 148.33 81.8836 149.184C70.4891 157.878 68.9155 160.16 66.2881 156.744C59.7268 148.19 59.2631 147.672 57.7317 140.182C60.9913 142.268 64.4897 143.584 67.5667 145.684C67.8958 145.863 68.2447 146.004 68.6064 146.104C69.2667 146.328 69.4634 146.678 69.4353 147.098C69.4353 147.826 68.7469 148.792 68.7328 149.716C68.7343 149.797 68.7607 149.875 68.8085 149.94C68.8563 150.005 68.9231 150.054 68.9998 150.08C69.0788 150.101 69.1625 150.096 69.2385 150.066C69.3145 150.035 69.3786 149.981 69.4213 149.912C71.2759 146.776 74.8165 133.112 76.1372 122.556C76.7835 117.46 77.3174 114.45 77.4157 112.518C77.5 110.908 77.6686 109.718 76.9661 108.92C75.5375 107.814 73.9866 106.874 72.3437 106.12C71.5007 105.644 71.023 106.4 71.8519 106.96C73.2653 107.741 74.6096 108.64 75.8702 109.648C76.2636 110.138 75.9826 110.684 75.8702 111.356C73.18 109.172 70.2535 107.293 67.1452 105.756C72.5404 105.266 77.3736 102.284 78.905 103.264C83.3027 106.064 88.9367 125.468 89.3161 125.972C91.9575 128.604 88.1499 132.622 87.9813 139.146C87.9466 139.518 87.9466 139.893 87.9813 140.266C88.1078 140.63 88.7119 140.798 88.7962 140.182C89.5409 134.876 92.0137 128.982 91.0302 127.722C89.5128 125.748 89.4987 123.256 88.726 121.016C87.4755 117.39 87.0962 116.354 87.321 116.326C87.5458 116.298 89.4004 118.818 94.346 123.466C94.4123 123.523 94.4971 123.554 94.5848 123.554C94.6725 123.554 94.7573 123.523 94.8237 123.466C94.8949 123.415 94.9454 123.34 94.966 123.256C94.9866 123.171 94.976 123.082 94.9361 123.004C94.7963 122.775 94.6414 122.555 94.4724 122.346C94.2055 121.968 92.8286 120.19 91.536 118.79C86.197 113.008 85.5507 114.128 93.3906 113.484C96.2006 113.246 101.933 116.788 103.928 118.314C106.497 120.192 109.279 121.761 112.218 122.99C113.7 123.624 115.331 123.828 116.924 123.578C118.962 123.326 121.505 130.732 123.865 135.016C124.006 135.282 124.02 135.436 123.753 135.772C103.647 160.706 104.982 159.95 94.9361 170.408C94.1774 171.192 90.1872 171.346 89.0772 169.414C88.1499 168 88.6417 165.83 84.9465 163.072ZM164.624 152.852C161.955 163.702 160.901 184.436 161.407 187.852C161.912 191.268 160.198 194.614 158.821 198.338C154.101 211.134 152.991 222.488 151.796 226.604C149.366 235.2 149.436 245.406 148.874 248.22C148.621 249.508 149.858 249.858 148.298 251.02C145.952 252.756 121.252 259.77 111.051 260.372C103.282 260.834 102.017 256.27 90.3277 253.372C89.4787 252.974 88.7624 252.342 88.2642 251.55C87.7659 250.758 87.5068 249.84 87.5177 248.906C88.0043 245.497 88.7035 242.121 89.6111 238.798C89.9483 237.51 89.6111 237.202 98.7155 247.534C99.5445 248.472 99.9238 249.046 100.514 248.57C101.919 247.506 91.9855 237.888 88.5293 233.856C87.9235 233.242 87.5424 232.443 87.4474 231.588C87.2367 228.55 85.9581 225.722 85.6069 222.698C83.3167 202.748 88.9508 198.968 88.9508 170.646C90.0029 171.568 91.3786 172.036 92.7768 171.95C94.175 171.863 95.4818 171.228 96.4113 170.184C103.844 162.414 120.142 142.324 124.258 136.374C128.066 141.834 134.009 156.45 144.687 148.834C153.019 142.898 153.328 139.244 154.677 140.854C165.256 153.482 165.017 151.2 164.624 152.852ZM167.996 143.626C164.174 151.256 165.973 151.83 164.385 150.234C161.842 147.686 158.765 144.284 154.944 140.07C154.424 139.51 154.536 139.776 158.765 134.904C159.074 134.54 159.299 134.358 159.608 134.764C161.435 137.13 164.441 138.124 166.9 139.734C169.359 141.344 169.162 141.288 167.996 143.626ZM255.949 244.426C253.884 244.426 253.687 244.3 253.139 242.242C251.046 233.464 243.655 219.352 242.84 217.896C242.025 216.44 243.613 216.678 244.021 216.006C248.404 225.4 254.179 234.108 255.949 244.426ZM244.709 212.716C240.339 220.92 229.254 218.162 226.444 213.99C224.913 211.694 221.864 204.19 221.105 195.79C220.304 186.746 219.11 187.39 220.543 187.11C223.775 186.354 225.531 187.894 227.413 188.51C233.272 190.554 232.486 185.066 234.003 182.588C236.04 179.242 236.153 192.192 242.096 198.324C245.074 201.39 244.821 204.68 245.398 209.398C245.534 210.542 245.314 211.701 244.765 212.716H244.709ZM234.874 146.048C237.029 146.912 239.131 147.903 241.168 149.016C255.401 156.184 246.395 176.512 245.65 182.308C244.147 194.04 249.669 194.908 247.055 207.004C247.055 207.214 246.76 207.942 246.718 208.068C245.636 206.668 247.421 202.062 243.416 198.114C238.583 193.368 238.471 187.614 235.886 182.448C235.169 181.048 236.321 181.342 238.274 180.278C240.901 178.878 241.463 176.596 239.679 174.16C238.091 171.962 243.051 170.212 238.049 168.112C234.523 166.628 234.874 170.674 236.054 159.39C236.237 157.598 240.41 152.684 234.424 151.326C233.804 151.176 233.153 151.215 232.554 151.437C231.956 151.659 231.438 152.054 231.067 152.572C229.417 154.175 228.087 156.076 227.147 158.172C224.168 164.528 218.899 156.52 227.147 150.752C227.844 150.148 228.737 149.816 229.662 149.816C230.586 149.816 231.479 150.148 232.176 150.752C232.626 149.268 231.938 148.792 228.734 148.372V148.246C229.507 147.07 229.999 145.446 231.081 144.788C232.162 144.13 233.764 145.6 235 146.048H234.874ZM229.324 163.31C225.418 160.874 230.996 156.002 232.472 153.398C233.202 152.124 234.27 152.348 235.197 152.53C236.715 152.852 236.687 155.33 236.11 156.156C235.534 156.982 230.954 164.248 229.451 163.31H229.324ZM211.27 146.51C213.349 146.02 215.485 145.642 217.494 146.846C222.608 149.898 208.952 151.2 213.097 152.446C218.464 153.972 217.452 159.894 218.155 159.922C218.618 159.922 218.604 159.348 218.674 158.956C218.917 157.567 218.705 156.136 218.07 154.876C217.435 153.616 216.411 152.592 215.148 151.956C216.138 151.543 217.104 151.075 218.042 150.556C220.318 149.156 220.36 147.196 217.972 146.202C216.342 145.53 216.3 144.606 216.567 143.276C217.171 139.762 215.836 138.404 216.258 129.514C216.258 128.758 215.949 127.54 217.41 127.47C219.756 127.344 219.419 128.772 220.585 138.53C220.768 139.93 221.512 145.684 222.96 145.936C224.407 146.188 226.008 140.854 229.732 136.64C231.333 134.82 235.661 130.872 237.164 132.79C237.74 133.546 238.035 134.19 237.459 135.016C237.038 135.562 236.153 136.682 235.731 137.13C226.149 147.336 228.889 147.252 226.093 149.73C218.983 156.044 221.414 162.736 226.514 160.93C226.543 161.157 226.59 161.382 226.655 161.602C229.282 167.916 232.176 162.876 234.551 160.874C233.933 172.172 230.49 170.674 231.404 171.822C231.769 172.284 232.809 171.472 233.09 171.262C234.79 169.862 234.284 167.748 236.181 168.714C236.377 168.812 236.616 168.854 236.827 168.938C239.637 169.876 239.637 169.876 238.401 172.424C237.529 174.258 242.349 177.52 236.827 179.424C229.31 182.126 233.806 189.014 227.961 187.194C225.151 186.298 224.21 185.318 221.569 186.186C221.029 186.424 220.443 186.544 219.852 186.536C219.262 186.528 218.68 186.394 218.146 186.141C217.612 185.889 217.14 185.524 216.761 185.073C216.381 184.621 216.104 184.094 215.949 183.526C215.77 182.82 215.367 182.19 214.8 181.73C214.233 181.271 213.532 181.007 212.802 180.978C211.172 180.824 209.654 180.096 210.16 178.528C210.441 177.881 210.508 177.162 210.351 176.475C210.195 175.788 209.823 175.168 209.289 174.706C208.643 174.132 208.797 173.306 209.584 172.914C216.202 168.98 217.312 174.174 222.566 173.852C220.81 171.738 214.923 171.976 212.043 164.64C208.305 155.036 204.259 148.274 211.397 146.58L211.27 146.51ZM197.501 161.532C205.608 163.688 208.362 160.776 209.303 162.064C209.767 162.68 209.05 162.792 208.853 163.1C207.824 164.808 206.673 166.441 205.411 167.986C199.918 173.866 198.681 169.554 196.981 161.952C197.023 161.602 197.164 161.476 197.628 161.602L197.501 161.532ZM202.531 179.214C202.531 180.11 202.095 180.376 201.435 180.39C200.775 180.404 199.791 180.964 199.342 179.788C198.892 178.612 199.342 174.678 199.665 172.648C199.791 171.99 199.988 172.004 200.55 172.116C204.119 172.858 202.32 172.55 202.657 179.284L202.531 179.214ZM196.11 139.118C195.24 145.998 195.156 152.953 195.857 159.852C187.905 157.612 190.097 150.234 192.429 142.128C193.216 139.916 194.101 140.112 196.237 139.188L196.11 139.118ZM186.907 141.428C194.312 141.596 191.122 137.368 189.31 149.338C187.582 160.65 195.576 158.676 196.223 162.302C196.573 165.021 197.406 167.657 198.681 170.086C199.243 171.038 199.089 170.828 198.892 171.612C198.232 174.412 197.332 177.212 198.035 180.012C198.639 182.392 200.339 181.888 202.938 181.496C204.723 181.23 203.486 179.536 204.076 173.964C204.175 173.026 204.779 172.06 203.936 171.164C203.669 170.856 204.175 170.646 204.442 170.436C213.153 161.756 207.252 161.476 212.113 167.972C212.777 168.846 213.541 169.639 214.389 170.338C211.158 170.478 205.959 172.494 208.952 175.63C210.877 177.604 206.324 180.936 211.762 182.168C215.977 183.12 214.249 186.214 217.045 186.662C220.515 187.236 218.042 196.546 222.566 208.768C225.489 216.65 228.186 217.756 233.511 219.254C228.509 219.744 224.365 221.662 220.093 223.16C218.14 223.846 219.897 222.418 218.941 221.676C217.002 220.15 215.612 218.036 213.588 216.594C212.029 215.488 212.029 215.502 211.017 217.112C198.372 202.118 196.518 189.98 192.106 169.82C186.233 142.142 185.249 141.4 187.034 141.498L186.907 141.428ZM223.437 233.968C223.799 234.996 223.834 236.111 223.536 237.16C223.156 237.972 222.637 238.714 221.625 238.644C219.517 238.504 221.794 232.61 218 228.368C217.073 226.968 216.497 226.884 218.393 224.042C220.993 226.846 222.78 230.301 223.564 234.038L223.437 233.968ZM223.128 228.48C230.856 235.144 229.774 232.904 229.24 237.482C225.292 236.096 224.21 232.708 223.255 228.55L223.128 228.48ZM215.457 228.088C211.34 224.952 211.411 224.938 210.708 224.686C209.486 224.252 210.483 223.09 210.624 222.292C211.046 220.822 211.576 219.386 212.211 217.994C212.45 217.294 212.703 217.392 213.125 217.77C216.145 220.472 217.649 222.04 217.705 222.39C217.761 222.74 216.469 225.134 215.583 228.2L215.457 228.088ZM182.018 140.7C185.011 141.302 185.235 141.302 185.264 142.1C185.502 148.652 187.793 154.7 189.479 161.014C191.165 167.328 192.218 173.712 193.581 180.068C197.15 196.7 197.178 200.55 208.348 215.376C209.57 217 211.86 218.372 209.429 221.088C201.393 213.472 194.832 205.688 189.76 178.164C188.804 173.068 187.188 168.14 186.036 163.1C180.472 139.146 180.978 140.49 182.018 140.7ZM174.22 242.564C174.608 241.969 175.18 241.517 175.85 241.277C176.52 241.037 177.25 241.022 177.929 241.234C180.192 242.655 182.538 243.94 184.954 245.084C181.301 249.284 177.466 253.19 171.804 255.038C172.123 250.801 172.934 246.615 174.22 242.564ZM171.607 259.238C171.607 257.096 171.368 255.472 173.546 255.304C177.79 253.399 181.521 250.52 184.435 246.904C185.573 245.504 186.5 245.658 187.877 246.302C184.28 249.466 179.84 255.332 171.635 259.238H171.607ZM196.138 247.8C192.499 247.338 193.567 247.59 178.983 240.66C185.39 238.784 191.53 237.538 197.754 236.124C195.998 246.4 197.684 248.01 196.138 247.8ZM173.658 240.8C172.871 240.968 172.057 241.066 171.256 241.262C170.132 241.542 169.64 240.982 169.457 240.002C169.327 239.471 169.279 238.923 169.317 238.378C169.598 236.264 164.975 237.09 167.813 232.778C168.951 231.07 171.916 229.642 169.457 228.578C165.818 227.094 166.268 227.066 167.181 223.384C169.499 214.032 172.141 210.784 172.801 209.692C173.166 211.156 173.392 212.651 173.476 214.158C173.686 215.712 174.74 217.532 175.667 217.588C177.213 217.588 172.773 215.404 174.557 202.034C175.962 191.226 172.478 190.316 169.471 184.562C165.537 176.988 166.071 172.326 171.509 166.726C176.946 161.126 180.276 162.526 180.978 156.506C181.25 154.858 181.822 153.273 182.664 151.83C189.914 181.09 187.694 171.248 190.336 185.696C194.551 208.264 200.662 214.984 208.067 221.648C209.373 222.824 208.727 224.014 208.896 225.19C208.896 225.526 208.572 225.582 208.348 225.33C207.981 224.47 207.462 223.683 206.816 223.006C205.678 222.166 202.952 223.762 202.812 223.86C200.339 225.722 200.999 221.438 195.07 223.958C194.284 224.294 194.663 224.924 194.888 225.47C196.101 228.536 197.475 231.536 199.004 234.458C179.152 238.658 183.058 238.714 173.588 240.8H173.658ZM204.119 236.348C202.896 237.552 202.404 237.482 201.435 236.068C199.159 232.75 197.782 228.97 195.927 225.456C195.632 224.924 195.927 224.854 196.321 224.728C196.879 224.466 197.495 224.352 198.11 224.396C198.725 224.44 199.319 224.641 199.833 224.98C203.093 227.318 203.346 227.78 204.189 227.514C203.711 225.526 200.634 225.708 205.369 224.28C206.929 223.818 208.53 226.884 208.404 228.676C208.361 230.745 208.754 232.801 209.556 234.71C207.111 233.8 205.552 234.864 204.048 236.32L204.119 236.348ZM208.938 227.108C208.783 226.338 209.64 225.848 210.413 226.24C214.487 228.242 215.85 230.832 216.96 228.284C218.064 229.749 218.822 231.443 219.18 233.24C219.56 234.948 218.45 233.422 212.225 232.876C209.879 232.68 210.202 233.562 208.868 227.08L208.938 227.108ZM228.762 254.31C229.437 255.416 228.692 255.556 225.292 257.908C224.842 256.816 224.421 255.78 224.013 254.73C218.211 239.764 209.865 238.882 211.172 235.508C211.326 235.102 211.073 234.542 210.989 233.842C211.289 233.913 211.578 234.026 211.846 234.178C224.8 245.77 224.87 247.996 228.692 254.282L228.762 254.31ZM224.955 245C224.575 245.14 224.266 245.238 223.929 244.79C214.67 232.288 208.039 233.66 218.759 235.172C219.855 235.326 219.377 237.048 219.742 238.168C220.768 241.36 224.575 240.338 225.165 235.844C226.851 237.034 228.271 238.518 229.957 239.652C230.645 240.1 230.462 241.402 230.547 242.326C230.603 242.914 230.828 242.746 224.955 245ZM220.346 224.266C225.629 222.586 235.942 218.232 240.649 220.066C240.649 219.31 239.946 219.212 239.468 218.792L241.716 217.714C241.716 221.662 243.445 222.068 241.857 225.288C241.008 226.846 240.289 228.47 239.707 230.146C238.78 233.352 242.082 234.094 241.112 232.33C240.073 230.342 243.768 225.946 243.782 222.95C246.887 229.558 250.189 236.068 252.043 243.446C246.002 240.646 245.791 240.898 246.086 239.722C246.676 237.398 245.215 235.158 242.84 230.062C242.728 229.824 242.517 229.25 242.054 229.488C241.59 229.726 241.759 230.062 242.18 231.224C242.602 232.386 245.538 238.882 244.793 239.624C244.288 240.1 243.571 239.246 242.939 238.994C239.463 237.607 236.135 235.876 233.005 233.828C232.568 233.566 232.095 233.368 231.6 233.24C230.771 233.03 231.277 233.674 231.193 233.94C227.61 230.846 223.873 227.724 220.346 224.266ZM237.206 257.782C234.059 252.91 231.895 242.382 231.333 236.6C231.333 235.928 230.884 234.878 231.924 234.864C232.351 234.898 232.752 235.081 233.058 235.38C233.364 235.68 233.554 236.077 233.595 236.502C234.256 241.122 233.806 243.194 238.26 253.834C238.977 255.542 239.047 256.788 237.206 257.782ZM243.473 261.646C242.006 260.721 240.481 259.894 238.906 259.168C238.401 258.888 237.614 258.804 238.232 258.09C238.85 257.376 239.215 256.326 240.368 257.138C241.154 257.53 241.983 259.308 242.307 259.938C242.307 260.078 242.433 260.26 242.897 260.204C242.764 259.254 242.405 258.349 241.851 257.564C241.296 256.78 240.561 256.14 239.707 255.696C239.609 255.542 236.125 245.476 235.633 243.208C235.085 240.674 234.734 237.776 234.551 236.852C239.89 241.458 240.171 253.848 244.709 262.444C244.99 263.004 244.85 262.696 243.473 261.646ZM256.3 266.378C251.931 265.51 250.484 265.608 248.376 264.012C243.501 260.302 240.55 243.978 237.22 238.448C240.03 239.26 256.89 246.512 257.115 246.652C257.764 247.059 258.313 247.607 258.722 248.254C259.13 248.901 259.388 249.631 259.476 250.39C260.557 257.208 262.286 257.46 262.286 265.986C262.356 268.072 258.394 266.784 256.3 266.378Z" fill="#3C270B"/>
<path d="M187.146 111.916C187.423 113.351 187.832 114.757 188.369 116.116C191.853 124.292 200.55 124.516 202.18 122.304C203.487 120.568 207.702 117.852 208.783 112.504C209.767 107.646 205.847 107.674 200.873 107.646C196.813 107.646 191.614 107.912 188.102 109.942C187.718 110.084 187.404 110.37 187.225 110.737C187.047 111.105 187.019 111.528 187.146 111.916ZM189.071 110.824C192.935 109.116 201.716 108.598 205.931 109.186C207.041 109.34 207.449 110.026 207.477 111.118C206.943 115.556 203.262 118.902 200.143 121.688C199.061 122.654 197.852 122.136 196.771 121.898C194.982 121.481 193.364 120.528 192.134 119.168C190.339 117.17 189.056 114.768 188.397 112.168C188.102 111.44 188.425 111.118 189.071 110.824Z" fill="#3C270B"/>
<path d="M241.66 90.3978C241.45 91.0558 242.461 90.3978 243.824 91.9938C249.669 98.7838 246.325 110.572 241.295 116.886C244.26 116.27 245.875 111.09 246.381 110.292C247.388 112.029 248.248 113.845 248.952 115.724C250.737 120.96 248.615 126.406 240.761 129.178C248.348 131.166 255.528 119.252 247.561 110.362C245.819 108.416 248.559 106.554 248.095 100.17C247.463 92.0919 242.068 89.0398 241.66 90.3978Z" fill="#3C270B"/>
<path d="M176.749 104.244C176.974 103.978 177.789 103.558 176.946 103.04C176.567 102.844 176.286 103.264 175.878 103.712C171.438 108.612 168.656 114.002 168.853 120.512C168.818 122.117 169.319 123.688 170.278 124.978C171.237 126.268 172.599 127.203 174.15 127.638C175.176 127.96 175.457 128.324 175.147 129.36C174.988 129.73 174.916 130.131 174.937 130.533C174.958 130.935 175.072 131.327 175.268 131.679C175.465 132.03 175.74 132.332 176.072 132.561C176.405 132.79 176.785 132.94 177.185 133C178.475 133.295 179.818 133.278 181.101 132.952C182.384 132.626 183.57 131.999 184.561 131.124C183.929 130.802 183.606 131.124 183.24 131.222C179.896 132.3 175.541 132.72 176.286 129.304C176.848 126.742 176.454 127.4 174.08 126.364C166.422 123.046 171.199 110.684 176.749 104.244Z" fill="#3C270B"/>
<path d="M225.362 261.618C223.491 264.553 221.788 267.591 220.262 270.718C219.363 272.636 215.064 270.312 202.475 267.624C202.208 267.624 202.405 266.532 201.772 267.302C200.269 269.178 204.582 268.828 212.689 271.586C214.109 272.069 215.559 272.457 217.031 272.748C219.082 273.126 220.81 273.336 221.864 270.97C225.11 263.704 228.271 261.016 227.596 260.484C227.508 260.41 227.396 260.369 227.28 260.369C227.165 260.369 227.053 260.41 226.964 260.484C226.402 260.82 225.866 261.199 225.362 261.618Z" fill="#3C270B"/>
<path d="M218.309 95.5078C218.435 95.6058 218.674 95.8578 218.73 95.6898C218.969 94.9618 219.953 94.8498 220.135 94.1078C220.332 92.9738 215.021 89.3618 209.177 90.8878C207.013 91.4478 206.9 91.5878 206.69 93.6878C206.324 97.0898 211.972 90.6918 218.309 95.5078Z" fill="#3C270B"/>
<path d="M181.723 93.968C184.071 91.5313 186.872 89.5723 189.97 88.2L188.565 88.088C194.353 85.0019 199.717 81.1858 204.526 76.734C204.765 76.496 205.439 76.3 205.004 75.838C204.568 75.376 204.554 75.838 201.955 77.798C189.746 87.192 181.793 89.712 180.585 91.042C181.99 91.434 182.959 90.58 184.14 90.37C181.54 93.226 181.54 93.226 181.723 93.968Z" fill="#3C270B"/>
<path d="M196.7 98.7416C197.023 98.6156 197.67 98.8956 197.529 98.2096C197.164 96.5296 191.755 99.4277 189.212 103.362C188.06 105.126 190.167 106.862 196.939 103.516C197.024 103.476 197.091 103.408 197.13 103.323C197.168 103.239 197.175 103.143 197.15 103.054C197.124 102.964 197.068 102.886 196.992 102.832C196.915 102.778 196.822 102.753 196.728 102.76C194.846 102.928 193.047 103.824 190.94 104.006C190.876 104.009 190.813 103.994 190.758 103.961C190.703 103.929 190.658 103.881 190.631 103.824C190.6 103.77 190.584 103.71 190.584 103.649C190.584 103.587 190.6 103.527 190.631 103.474C192.195 101.386 194.291 99.7529 196.7 98.7416Z" fill="#3C270B"/>
<path d="M228.593 82.4878C220.501 79.0438 221.189 77.0978 220.473 77.6018C218.365 79.0858 232.921 86.7998 236.785 85.8898C236.616 85.1058 234.818 85.1338 228.593 82.4878Z" fill="#3C270B"/>
<path d="M187.174 98.462C187.947 96.9242 188.342 95.2256 188.327 93.506C188.411 92.806 188.439 92.036 187.596 91.812C186.753 91.588 186.402 92.302 186.191 92.946C183.493 99.624 186.008 100.296 187.174 98.462Z" fill="#3C270B"/>
<path d="M238.85 86.7996C238.738 85.5956 239.342 84.9796 240.62 84.8676C242.363 84.7136 243.824 87.0376 238.457 88.1576C238.148 88.1576 237.628 88.0176 237.67 88.6056C237.768 90.1036 244.54 88.6056 243.29 85.2876C242.039 81.9696 235.731 85.3996 238.85 86.7996Z" fill="#3C270B"/>
<path d="M218.548 86.3097C214.62 84.2402 210.035 83.7879 205.777 85.0497C205.453 85.1337 204.934 85.2317 205.088 85.7077C205.369 86.5617 212.998 83.2297 219.77 88.0877C219.756 87.7064 219.634 87.337 219.418 87.0223C219.201 86.7075 218.9 86.4604 218.548 86.3097Z" fill="#3C270B"/>
<path d="M190.982 80.9759C190.659 80.4719 190.139 80.9759 189.774 81.1019C187.722 82.1099 182.285 85.036 181.625 87.262C187.118 83.314 191.586 81.9139 190.982 80.9759Z" fill="#3C270B"/>
<path d="M200.072 262.304C195.142 261.901 190.27 260.962 185.544 259.504C187.455 261.338 197.726 263.088 200.072 262.304Z" fill="#3C270B"/>
<path d="M200.255 259.266C197.262 259.028 194.438 258.02 191.474 257.768C194.224 259.009 197.247 259.525 200.255 259.266Z" fill="#3C270B"/>
<path d="M211.874 222.782C211.853 223.496 212.056 224.199 212.453 224.793C212.851 225.388 213.425 225.844 214.094 226.1C216.384 226.842 216.904 222.81 215.893 221.382C214.544 219.338 211.551 219.394 211.874 222.782ZM215.007 221.382C216.412 223.034 215.443 225.036 214.586 224.966C213.729 224.896 213.715 224.266 213.406 223.762C213.097 223.258 213.406 223.076 213.757 222.908C214.305 222.515 214.726 221.969 214.965 221.34L215.007 221.382Z" fill="#3C270B"/>
<path d="M98.8983 239.806C98.5611 239.582 98.1115 239.26 97.8164 239.708C97.1139 240.744 108.213 247.758 116.854 249.298C117.177 249.298 117.571 249.438 117.683 249.06C118.02 247.912 109.056 246.512 98.8983 239.806Z" fill="#3C270B"/>
<path d="M27.3554 63.9797C25.1636 58.8837 29.3084 58.1837 28.4794 57.4137C27.1447 56.1677 23.0561 61.5997 27.3554 63.9797Z" fill="#3C270B"/>
<path d="M152.991 102.2C148.242 99.8621 142.144 98.0701 130.398 100.156C129.991 100.24 129.401 100.156 129.429 100.702C129.541 102.662 129.33 104.636 130.454 106.456C133.587 111.552 138.435 113.456 144.027 113.288C148.902 113.176 151.979 109.858 154.297 105.924C155.548 103.782 155.224 103.278 152.991 102.2ZM152.991 105.294C152.012 107.01 150.668 108.491 149.054 109.635C147.44 110.779 145.595 111.558 143.647 111.916C138.435 112.882 131.536 108.164 130.637 103.054C130.356 101.458 130.553 101.094 132.112 101.052C139.727 100.842 144.575 99.6521 152.457 103.474C153.44 103.964 153.496 104.398 152.962 105.28L152.991 105.294Z" fill="#3C270B"/>
<path d="M147.061 67.8438C148.93 76.9998 163.584 86.2678 166.816 82.8098C164.596 82.5609 162.437 81.9259 160.437 80.9338C146.584 73.1778 148.705 65.8418 147.104 66.3458C146.654 66.4858 146.963 67.3818 147.061 67.8438Z" fill="#3C270B"/>
<path d="M130.511 77.364C128.403 77.126 128.122 81.942 127.996 83.146C127.869 84.35 128.15 85.862 129.401 85.946C131.846 86.31 133.222 77.672 130.511 77.364Z" fill="#3C270B"/>
<path d="M140.809 87.7657C141.961 87.8917 141.385 86.2117 139.896 86.5757C134.374 87.9057 131.171 93.0997 135.498 93.5757C137.325 93.7857 137.465 92.7777 139.081 94.3317C141.371 96.5297 144.364 94.3317 143.816 93.4077C143.577 93.0017 143.254 93.3237 142.987 93.4077C139.235 95.1717 140.374 91.6297 136.987 92.2457C135.582 92.2457 134.346 92.4557 134.88 91.1397C135.544 90.1638 136.424 89.3524 137.452 88.7675C138.48 88.1827 139.628 87.84 140.809 87.7657Z" fill="#3C270B"/>
<path d="M158.302 85.2599C158.409 84.8758 158.373 84.4656 158.199 84.1065C158.024 83.7474 157.725 83.4639 157.356 83.3092C156.987 83.1546 156.574 83.1395 156.194 83.2666C155.815 83.3938 155.495 83.6545 155.295 83.9999C151.516 90.1879 156.784 91.8539 158.302 85.2599Z" fill="#3C270B"/>
<path d="M131.269 70.5459C134.079 72.7999 139.474 72.6319 143.141 72.5619C143.41 72.5707 143.676 72.5171 143.92 72.4053C144.164 72.2935 144.379 72.1266 144.546 71.9179C143.577 71.7219 144.659 71.9179 141.427 71.6939C132.211 71.2739 131.494 68.8939 131.058 69.8459C131.004 69.9684 130.995 70.1064 131.033 70.2349C131.072 70.3634 131.156 70.4737 131.269 70.5459Z" fill="#3C270B"/>
<path d="M170.357 82.4036C170.353 82.1116 170.269 81.8262 170.112 81.5791C169.956 81.332 169.734 81.1328 169.471 81.0036C162.179 76.6076 162.095 76.6356 161.8 77.0136C160.873 78.3156 168.825 81.7036 170.357 82.4036Z" fill="#3C270B"/>
<path d="M130.426 75.264C129.373 73.864 121.996 73.556 121.673 71.708C121.491 70.854 120.563 71.204 120.746 72.058C121.252 74.396 128.178 74.97 130.426 75.264Z" fill="#3C270B"/>
<path d="M145.6 93.3657C146.373 92.4557 146.528 90.6777 145.6 90.6777C144.982 90.6777 145.179 91.1817 145.207 91.4757C145.291 92.0777 145.024 92.7357 145.6 93.3657Z" fill="#3C270B"/>
<path d="M90.2994 158.004C90.2526 158.061 90.2271 158.133 90.2271 158.207C90.2271 158.281 90.2526 158.352 90.2994 158.41C90.3328 158.477 90.3899 158.53 90.4598 158.558C90.5296 158.587 90.6075 158.589 90.6787 158.564C94.0929 157.444 101.722 146.706 105.487 131.46C105.549 131.234 105.596 131.005 105.628 130.774C105.645 130.659 105.619 130.543 105.554 130.447C105.489 130.351 105.39 130.283 105.277 130.256C105.167 130.231 105.052 130.245 104.951 130.296C104.851 130.347 104.772 130.432 104.729 130.536C102.874 135.17 99.1087 150.78 90.2994 158.004Z" fill="#3C270B"/>
<path d="M52.4068 18.2001C55.6102 18.8021 58.8136 19.3621 62.017 19.9081C64.7006 20.3841 66.232 19.0541 66.232 16.3661C66.232 12.9081 65.4593 13.3281 53.8259 11.1161C50.1026 10.3461 47.5315 17.2341 52.4068 18.2001ZM56.0036 12.2501C65.1502 14.2661 65.67 13.8181 65.2204 16.5901C64.6865 19.8941 63.0146 18.9561 54.3176 17.6401C57.1557 16.3381 57.6053 14.7281 56.0036 12.1941V12.2501ZM54.2755 13.0621C55.5962 13.0621 55.9193 13.8041 56.0739 14.6021C56.0725 15.082 55.892 15.5443 55.5673 15.8989C55.2426 16.2534 54.7972 16.4749 54.3176 16.5201C53.85 16.5256 53.3993 16.3459 53.0646 16.0203C52.73 15.6947 52.5389 15.2501 52.5333 14.7841C52.5277 14.3181 52.7081 13.869 53.0348 13.5355C53.3616 13.2021 53.8078 13.0116 54.2755 13.0061V13.0621ZM55.3573 12.0681C54.6568 12.0738 53.9763 12.3023 53.4153 12.7203C52.8542 13.1384 52.4418 13.7241 52.2382 14.3921C52.1199 14.9243 52.1666 15.4797 52.3724 15.9848C52.5782 16.4899 52.9332 16.9207 53.3903 17.2201C52.7963 17.3364 52.1801 17.229 51.661 16.9187C51.1419 16.6083 50.7568 16.1171 50.5803 15.5401C50.5324 14.8173 50.7002 14.0965 51.0628 13.4687C51.4254 12.8408 51.9664 12.334 52.6176 12.0121C53.5174 11.7914 54.4575 11.7914 55.3573 12.0121V12.0681Z" fill="#3C270B"/>
<path d="M194.185 225.974C186.43 222.236 178.828 220.29 171.284 216.174C171.216 216.109 171.125 216.073 171.031 216.073C170.936 216.073 170.846 216.109 170.778 216.174C171.073 218.358 190.111 224.952 193.651 226.786C194.41 227.248 195.042 226.38 194.185 225.974Z" fill="#3C270B"/>
<path d="M175.414 226.8C175.077 226.716 174.459 226.198 174.262 226.8C174.066 227.402 174.628 227.304 186.345 230.902C191.965 232.61 192.162 233.086 193.469 232.4C187.631 229.998 181.589 228.124 175.414 226.8Z" fill="#3C270B"/>
<path d="M191.08 202.272C185.306 198.814 184.505 197.568 179.334 192.472C180.458 195.692 187.933 201.88 191.08 202.272Z" fill="#3C270B"/>
<path d="M220.374 176.26C219.658 175.63 219.082 172.998 218.155 173.656C217.48 174.132 218.576 179.06 222.946 176.806C227.315 174.552 228.116 178.934 229.858 176.232C232.106 172.732 236.321 176.316 235.029 170.968C233.905 171.374 234.593 172.83 233.118 172.9C228.903 173.124 229.043 176.232 228.046 175.7C224.14 173.908 221.85 177.562 220.374 176.26Z" fill="#3C270B"/>
<path d="M199.328 227.388C200.016 229.642 203.964 232.778 205.425 232.442C205.13 232.162 199.651 227.64 199.328 227.388Z" fill="#3C270B"/>
<path d="M59.6707 17.388C60.1481 17.3896 60.6085 17.2118 60.9601 16.89C61.3117 16.5682 61.5286 16.1261 61.5675 15.652C61.5389 15.1617 61.324 14.7006 60.9664 14.3625C60.6089 14.0245 60.1355 13.8348 59.6426 13.832C56.4954 13.846 57.1136 17.416 59.6707 17.388ZM60.2187 15.652C60.2295 15.7312 60.2224 15.8118 60.1977 15.8878C60.173 15.9639 60.1314 16.0334 60.0761 16.0912C60.0208 16.1491 59.9531 16.1937 59.878 16.2219C59.803 16.2501 59.7225 16.2611 59.6426 16.254C57.1558 16.226 59.9939 13.44 60.2187 15.652Z" fill="#3C270B"/>
</svg>
